<svg version="1.1" id="Layer_1" xmlns="http://www.w3.org/2000/svg" xmlns:xlink="http://www.w3.org/1999/xlink" x="0px" y="0px"
	 width="100%" viewBox="0 0 532 366" enable-background="new 0 0 532 366" xml:space="preserve">
<path fill="#FDFEFB" opacity="1.000000" stroke="none" 
	d="
M1.000000,348.000000 
	C1.000000,232.374512 1.000000,116.749008 1.000000,1.061759 
	C178.229019,1.061759 355.458069,1.061759 533.000000,1.061759 
	C533.000000,115.687912 533.000000,230.376099 532.553345,345.532135 
	C527.143250,346.472321 522.147583,346.733002 517.225891,347.480316 
	C512.855042,348.144012 510.453613,351.496307 512.346741,354.764862 
	C513.468262,356.701141 516.584595,357.482025 518.803894,358.782440 
	C519.202637,358.421722 519.601318,358.061035 520.000000,357.700317 
	C520.000000,360.800201 520.000000,363.900116 520.000000,367.000000 
	C509.978577,367.000000 499.957123,367.000000 489.429535,366.645569 
	C487.383728,361.576385 484.324860,363.395111 481.300110,364.947906 
	C480.790436,363.790558 480.062714,362.915771 480.084717,362.060272 
	C480.215424,356.974213 479.243866,352.833099 473.122742,352.074890 
	C472.373352,351.982025 471.506836,351.037445 471.099945,350.272095 
	C468.677673,345.715271 460.595947,342.348633 455.677246,343.766785 
	C455.248383,345.341522 455.148438,347.788422 454.408417,348.000366 
	C452.776978,348.467560 450.792572,347.947083 449.010498,347.560699 
	C447.744873,347.286316 446.608704,346.242889 445.355682,346.113190 
	C440.508301,345.611328 435.637268,345.338196 430.577911,344.965363 
	C428.248474,349.598389 422.355835,349.440826 417.111328,343.678955 
	C412.762329,348.890961 407.750885,349.972900 402.922699,345.374725 
	C401.988098,342.723816 401.801880,339.898071 400.298462,338.359344 
	C395.672241,333.624481 390.224792,329.594299 390.854553,321.857147 
	C390.900543,321.292175 389.648529,320.621521 389.000000,319.666687 
	C389.000000,318.888885 389.000000,318.444458 388.934509,317.638184 
	C387.125092,316.520020 385.338623,315.847168 383.647491,314.986938 
	C381.344604,313.815521 377.733093,312.967224 377.122375,311.157166 
	C375.540375,306.468475 374.989746,301.580139 369.488953,299.472046 
	C368.979828,299.276886 369.062195,297.319885 369.019226,296.175323 
	C368.944397,294.183075 369.287079,292.120911 368.871979,290.214966 
	C368.599609,288.964294 367.302826,287.936707 365.733612,285.825409 
	C365.400085,289.653534 365.224274,291.671600 365.048462,293.689667 
	C364.210144,293.750122 363.371826,293.810577 362.533508,293.871033 
	C361.078979,288.244476 358.394958,282.600677 358.473755,276.995697 
	C358.577789,269.595032 359.117096,269.661163 351.947083,266.803101 
	C348.700958,265.509155 345.514008,262.669250 343.638916,259.688538 
	C341.314148,255.992981 343.190125,251.190475 346.443878,251.288025 
	C350.868774,251.420685 352.483063,248.731369 354.703430,245.874313 
	C355.464417,246.391510 355.955292,246.830353 356.299774,247.363754 
	C374.420135,275.420990 392.513489,303.495667 410.681885,331.521729 
	C411.563385,332.881470 413.080780,334.795258 414.321838,334.810211 
	C432.106384,335.024719 449.894318,334.956757 467.749207,334.956757 
	C467.749207,237.010040 467.749207,139.502243 467.749207,42.268196 
	C448.263550,42.268196 429.179962,42.268196 409.571350,42.268196 
	C409.571350,105.399231 409.571350,168.194366 409.571350,231.993820 
	C408.429230,230.424637 407.912048,229.793854 407.480286,229.109238 
	C391.782501,204.219543 376.146118,179.290939 360.389038,154.438858 
	C337.246338,117.938202 313.980377,81.515594 290.907837,44.970768 
	C289.301270,42.426094 287.599030,41.878532 284.897644,41.894302 
	C268.733612,41.988697 252.568710,41.927143 236.404114,41.937412 
	C234.962021,41.938332 233.520020,42.078617 232.215454,42.146973 
	C232.215454,77.226036 232.215454,111.959160 232.215454,147.223282 
	C246.736008,147.223282 260.867767,147.223282 274.992493,147.586121 
	C273.124908,150.720993 271.264374,153.493011 268.869843,157.060638 
	C267.522095,156.761322 265.194916,156.244507 262.867737,155.727692 
	C260.347015,156.976028 257.653473,157.744980 254.920715,157.927933 
	C252.194519,158.110443 249.798813,158.181473 249.539062,161.919342 
	C223.387772,161.948502 197.697372,161.887085 171.929321,161.481415 
	C169.946487,159.353043 168.257843,159.095657 166.531677,161.911392 
	C149.504364,161.996460 132.938416,161.996460 116.018120,161.996460 
	C116.018120,121.713257 116.018120,81.992599 116.018120,42.272121 
	C96.462540,42.272121 77.269936,42.272121 57.942558,42.272121 
	C57.942558,44.613266 57.945877,46.601486 57.942059,48.589695 
	C57.881630,80.056320 57.820290,111.522942 57.422066,142.991547 
	C56.383327,143.662399 55.681683,144.331238 54.607140,145.166046 
	C51.616920,145.560013 48.925159,145.492279 46.409805,146.125397 
	C44.866093,146.513962 43.592525,147.975754 42.197655,148.955612 
	C43.022106,150.118225 43.936852,151.228561 44.647758,152.456894 
	C45.502796,153.934250 46.973251,155.677536 46.696709,156.994904 
	C46.467030,158.089050 44.171665,159.203476 42.649601,159.456680 
	C40.777020,159.768158 38.490910,158.524200 36.866634,159.169189 
	C34.692703,160.032410 31.673801,161.835785 31.360163,163.642166 
	C30.801527,166.859634 31.999464,170.382080 32.462769,173.776978 
	C32.894924,174.069229 33.327080,174.361496 33.759235,174.653763 
	C35.511471,170.145187 37.357605,170.003510 39.028606,173.925232 
	C41.626129,170.557297 44.779583,169.525024 47.329163,172.323669 
	C51.496868,176.898529 49.736000,185.369293 43.726681,189.593781 
	C45.411213,190.747101 47.204453,192.873383 48.283188,192.557724 
	C52.931057,191.197769 53.004707,193.888931 53.000473,197.015823 
	C52.997097,199.506256 53.132927,202.005371 52.970028,204.485062 
	C52.736534,208.039337 54.424942,209.330521 57.841080,209.462418 
	C57.931049,251.496780 57.931049,293.070343 57.931049,335.114685 
	C75.689041,335.114685 92.813858,335.114685 109.951370,335.548889 
	C110.730293,336.956970 111.496529,337.930847 112.262764,338.904755 
	C113.177269,337.652740 114.091766,336.400726 115.311783,335.002441 
	C115.869652,334.242432 116.122009,333.628693 116.634476,332.967224 
	C116.711937,332.274811 116.529282,331.630127 116.254166,330.526001 
	C116.161705,291.857971 116.161705,253.649384 116.161705,215.135147 
	C126.258217,215.135147 135.870132,215.122513 145.482010,215.137421 
	C180.412323,215.191635 215.342651,215.255066 250.206772,215.750656 
	C250.473175,217.025818 250.738785,218.560196 251.148514,218.599686 
	C256.475250,219.113266 261.824738,219.621567 267.162201,219.562363 
	C268.033905,219.552689 268.875153,216.802231 270.145325,215.226929 
	C276.728119,215.135330 282.896088,215.135330 289.375153,215.135330 
	C289.375153,211.241943 289.375153,208.128845 289.681519,204.967224 
	C290.542267,204.276688 291.096680,203.634689 291.651093,202.992706 
	C290.893707,202.656021 290.136322,202.319336 289.283661,201.523926 
	C289.232574,190.381241 289.276764,179.697296 289.655487,168.957458 
	C294.549255,163.935791 294.617859,163.026688 290.364624,159.065781 
	C289.864441,160.146408 289.425385,161.094894 288.533142,162.017746 
	C285.053314,161.933350 282.026703,161.874588 278.991699,161.441177 
	C278.026428,157.894135 277.307739,154.330399 281.969727,154.164139 
	C286.994690,153.984940 288.024139,151.293396 288.370575,147.129364 
	C291.685455,146.570786 293.363251,147.967484 293.987427,151.043304 
	C293.022339,153.321976 292.201813,155.259521 291.163391,157.711563 
	C297.118256,157.520462 295.754211,161.614700 295.600494,166.013428 
	C298.098724,164.287140 299.721313,163.165939 301.625488,162.276154 
	C314.529999,182.290131 327.152893,202.072678 339.434387,221.956909 
	C338.572479,222.791504 338.051910,223.524429 337.248413,224.655685 
	C339.220886,225.135925 340.755676,225.509598 342.562988,226.036163 
	C343.311066,227.097412 343.786682,228.005798 343.888794,228.967285 
	C337.768982,231.636551 343.390045,233.987518 343.967438,236.158401 
	C344.714111,238.966003 347.039154,238.996902 349.365356,236.985901 
	C350.884552,239.170258 352.115845,241.184998 353.141876,243.575775 
	C346.507538,245.934280 340.123108,248.083191 333.629120,249.823303 
	C330.733734,250.599136 327.746063,250.044083 327.112793,246.324234 
	C326.532959,242.918381 326.355011,239.444122 326.000000,235.562500 
	C326.000000,233.083328 326.000000,231.041672 326.276550,228.751053 
	C327.267883,222.243195 325.518280,220.504013 317.666687,220.000000 
	C316.888885,220.000000 316.444458,220.000000 315.783630,219.733551 
	C311.194153,216.784134 311.260040,215.315399 314.539551,212.089020 
	C316.899414,209.767334 318.536133,206.620285 320.107056,203.636887 
	C320.642822,202.619354 320.480896,200.304871 319.767700,199.791351 
	C318.848236,199.129303 316.930573,199.331055 315.662598,199.780655 
	C312.715759,200.825546 309.894348,202.228012 307.033386,203.510773 
	C299.225128,207.011810 296.478882,211.638702 298.099121,219.220718 
	C302.065979,214.998535 303.623840,217.854507 305.217224,221.317139 
	C305.875732,222.748169 307.377533,223.771759 308.172058,225.165237 
	C308.913300,226.465256 309.546997,227.985428 309.659271,229.452225 
	C309.894501,232.525940 309.647736,235.633667 309.801880,238.717285 
	C309.948395,241.648468 310.309570,244.324722 306.264618,245.153412 
	C304.884338,245.436188 303.826843,247.294434 302.862061,248.205887 
	C305.460266,249.457870 307.206940,250.166306 308.770050,251.162659 
	C309.091522,251.367584 308.727448,252.648010 308.669861,253.587570 
	C307.062134,253.587570 305.743988,253.587570 304.479553,253.587570 
	C305.279388,256.466644 305.969055,258.949158 307.013214,262.707794 
	C312.834106,261.453064 318.673431,260.194397 324.521729,258.933746 
	C324.989471,262.450714 325.211884,264.924896 325.670258,267.354553 
	C326.173126,270.019989 326.345306,272.152679 322.968597,273.237091 
	C320.143890,274.144165 319.402832,276.452606 320.598572,279.306122 
	C321.173431,280.677948 321.651886,282.127625 321.909363,283.588715 
	C323.237244,291.123627 325.834808,292.532837 333.123840,289.562622 
	C337.746704,287.678833 342.836029,290.793793 344.212524,295.657501 
	C345.358643,299.707184 346.708130,304.044464 349.226898,307.271393 
	C352.246490,311.140015 352.904266,313.244385 350.048920,317.016968 
	C348.902008,318.532288 348.406799,320.751831 348.193237,322.713776 
	C347.861542,325.761444 348.249908,328.892303 347.854980,331.925659 
	C347.717072,332.984863 346.164673,333.859924 345.258240,334.819092 
	C344.509399,333.693970 343.404327,332.662628 343.078796,331.426086 
	C342.117645,327.775208 341.422943,324.051056 340.717834,320.337769 
	C340.515198,319.270538 340.526428,318.133545 340.623688,317.045013 
	C340.786987,315.217560 341.097900,313.403351 341.346741,311.583557 
	C339.231018,311.442596 337.095795,311.053162 335.003967,311.217102 
	C331.621429,311.482178 328.267426,312.111084 324.901398,312.586334 
	C321.684296,313.678406 321.560242,316.381165 323.238312,319.665192 
	C324.186920,321.521698 324.808655,323.703461 324.955383,325.782623 
	C325.453003,332.832855 325.805481,339.899811 325.954803,346.965881 
	C326.061371,352.007843 324.949554,352.616089 320.727478,351.561279 
	C319.866028,347.183136 319.101868,343.435760 318.410706,339.674957 
	C318.267578,338.896057 318.325867,338.059937 318.410248,337.262787 
	C318.869263,332.927734 316.170532,330.502350 311.927765,331.112549 
	C308.870270,331.552307 305.744659,331.518982 301.519836,331.761505 
	C303.411743,334.654572 305.531738,337.974060 307.732300,341.239227 
	C309.845551,344.374939 308.810028,347.049957 305.283783,347.979584 
	C300.518951,349.235718 295.704834,350.441681 291.127747,352.223602 
	C288.264771,353.338226 285.925293,355.586426 284.062927,351.005157 
	C283.757355,350.253479 281.361847,350.001556 279.972687,350.098450 
	C272.308197,350.632965 264.656250,351.347290 256.780090,351.713989 
	C254.507111,350.667603 252.453995,349.907196 250.300674,349.109650 
	C251.679581,347.576660 252.832581,346.294830 254.435684,344.512573 
	C249.805862,342.025604 246.427734,343.083435 243.129776,345.703217 
	C242.083054,346.534729 240.805481,347.597626 239.613693,347.623047 
	C236.498337,347.689453 233.243576,347.692322 230.291641,346.851990 
	C228.029999,346.208191 225.714706,344.586731 224.235397,342.747070 
	C223.144760,341.390778 222.990250,338.966461 223.063568,337.042603 
	C223.427567,327.490204 222.812119,318.194885 217.552490,309.783264 
	C217.185791,309.196777 217.080856,307.991333 217.437057,307.478729 
	C220.971542,302.392273 223.502533,295.852509 231.744156,297.460602 
	C231.843277,310.137421 231.843277,322.355164 231.843277,335.149689 
	C247.902893,335.149689 263.448303,335.149689 278.997375,335.559631 
	C279.548157,341.420074 283.745789,338.336548 286.256531,338.767822 
	C286.925934,338.882782 288.058228,336.302917 288.984375,334.983185 
	C288.990723,335.006104 288.955261,334.973846 289.348572,334.978760 
	C293.014557,332.714874 292.930878,330.784332 289.378021,328.520081 
	C289.274567,295.277496 289.274567,262.491364 289.274567,229.163116 
	C276.206787,229.163116 264.098785,229.163116 251.986664,228.757095 
	C249.110596,220.736298 243.507843,228.111374 239.446777,226.128845 
	C237.366821,225.113464 235.735275,226.606110 235.514099,229.373947 
	C231.765518,228.949951 231.829620,231.027725 231.827286,233.380936 
	C231.809494,251.253677 231.713791,269.126343 231.294922,287.009216 
	C229.569275,287.855652 228.181976,288.677277 226.814819,289.531189 
	C224.025848,291.273132 222.189957,291.243561 221.974152,287.266510 
	C221.786819,283.814178 221.690857,280.291504 220.902267,276.954041 
	C219.962830,272.978058 220.863159,269.966675 222.911148,266.433960 
	C224.160477,264.278931 223.053696,260.551544 222.503952,257.624512 
	C222.053955,255.228561 220.535019,253.033188 220.086441,250.637222 
	C219.574127,247.900696 220.160507,244.926147 219.465958,242.264725 
	C218.692459,239.300842 219.592422,238.114502 222.166031,236.935623 
	C223.276794,236.426834 224.630966,233.641418 224.302490,233.266098 
	C222.515793,231.224625 220.238647,229.612396 217.606033,227.414795 
	C216.418900,235.850784 216.251892,235.985153 208.988739,236.003128 
	C204.505478,236.014221 199.602631,234.893555 195.627426,236.328720 
	C187.621872,239.218933 180.395493,237.806870 172.646362,234.995148 
	C171.528488,234.326462 170.764236,233.663223 169.955505,232.625916 
	C166.601852,227.719559 160.061859,227.393723 157.150513,231.857224 
	C154.421051,236.041855 152.257278,240.926865 146.201736,234.419983 
	C145.368240,237.461304 144.922760,239.673935 144.115463,241.745575 
	C143.789261,242.582642 142.672409,243.111618 141.915359,243.780807 
	C141.438385,242.882812 140.692368,242.031067 140.528748,241.079208 
	C139.569641,235.500229 139.296356,229.718689 137.564560,224.405457 
	C136.997040,222.664230 132.832382,221.633575 130.171494,221.245056 
	C128.968048,221.069321 126.193909,223.297684 126.229340,224.365814 
	C126.436394,230.608551 127.080528,236.858704 128.021591,243.038681 
	C128.238388,244.462433 130.019638,246.449860 131.381882,246.733734 
	C134.405136,247.363724 135.684418,249.084595 134.808640,251.556396 
	C134.284607,253.035492 131.989349,253.834839 130.614609,255.077347 
	C128.703629,256.804504 125.520088,258.544769 125.357994,260.486206 
	C125.033440,264.373596 126.396820,268.400055 127.050003,272.371307 
	C128.162506,279.135193 130.226288,285.928833 126.055954,292.467041 
	C125.466759,293.390808 125.177277,294.678558 125.195435,295.790558 
	C125.415161,309.244293 125.806145,322.695587 125.964348,336.149750 
	C126.045464,343.048065 123.370773,345.197144 116.344421,344.228302 
	C112.054489,343.636780 109.016495,345.258667 106.555305,349.000000 
	C101.291153,348.862732 96.165077,349.815369 93.035164,344.388611 
	C92.753426,343.900146 89.499245,344.773987 87.865631,345.532410 
	C86.635406,346.103577 85.835251,348.335510 84.765213,348.394073 
	C79.229958,348.696808 73.664452,348.688080 68.118973,348.503448 
	C60.584171,348.252563 52.265427,342.356140 46.152359,351.831238 
	C45.719257,352.502533 44.386204,352.791901 43.433201,352.891571 
	C40.637436,353.183990 37.721043,353.847717 35.034882,353.359406 
	C28.601250,352.189819 21.098597,354.765808 16.044916,348.220337 
	C15.487523,347.498413 13.937629,347.239197 12.864285,347.273499 
	C8.905827,347.399963 4.954197,347.740173 1.000000,348.000000 
M478.019196,304.831665 
	C480.196594,311.458862 478.127808,317.328217 475.461456,323.404968 
	C474.653687,325.245972 476.057526,329.899078 477.598358,330.552521 
	C481.002899,331.996429 481.266968,333.727905 480.649902,336.685913 
	C479.873779,340.406250 484.322968,345.882660 489.533051,346.613373 
	C488.720154,342.635559 488.895966,338.432831 487.042114,335.523346 
	C483.633209,330.173431 484.386475,326.821869 489.916992,324.289337 
	C491.922241,323.371063 494.067993,322.760834 496.145203,321.997925 
	C497.930817,321.342133 500.092163,321.102631 501.425507,319.927856 
	C506.928131,315.079742 505.785828,306.618591 498.614960,303.012024 
	C492.532410,299.952820 487.897522,296.684509 486.920715,289.257904 
	C486.674072,287.382599 483.041962,285.952576 480.965576,284.317902 
	C479.646179,286.427582 477.541992,288.418640 477.200806,290.676208 
	C476.747528,293.675354 477.669128,296.882324 478.000000,300.799988 
	C478.000000,301.866669 478.000000,302.933319 478.019196,304.831665 
M59.432369,338.704010 
	C59.704842,338.989258 59.974834,339.277222 60.263748,339.544708 
	C60.271141,339.551544 60.486210,339.334137 60.604431,339.221283 
	C60.331665,338.936096 60.058903,338.650909 59.432369,338.704010 
z"/>
<path fill="#FEFEFE" opacity="1.000000" stroke="none" 
	d="
M354.364990,245.840088 
	C352.483063,248.731369 350.868774,251.420685 346.443878,251.288025 
	C343.190125,251.190475 341.314148,255.992981 343.638916,259.688538 
	C345.514008,262.669250 348.700958,265.509155 351.947083,266.803101 
	C359.117096,269.661163 358.577789,269.595032 358.473755,276.995697 
	C358.394958,282.600677 361.078979,288.244476 362.533508,293.871033 
	C363.371826,293.810577 364.210144,293.750122 365.048462,293.689667 
	C365.224274,291.671600 365.400085,289.653534 365.733612,285.825409 
	C367.302826,287.936707 368.599609,288.964294 368.871979,290.214966 
	C369.287079,292.120911 368.944397,294.183075 369.019226,296.175323 
	C369.062195,297.319885 368.979828,299.276886 369.488953,299.472046 
	C374.989746,301.580139 375.540375,306.468475 377.122375,311.157166 
	C377.733093,312.967224 381.344604,313.815521 383.647491,314.986938 
	C385.338623,315.847168 387.125092,316.520020 388.515198,317.638184 
	C379.936249,317.870026 373.730499,313.472046 372.924072,307.436005 
	C372.768372,306.270477 371.659088,305.232361 370.989685,304.135468 
	C370.339020,305.407501 368.973419,306.796722 369.159485,307.931610 
	C370.039978,313.303162 371.058319,318.690796 372.615570,323.896820 
	C373.422729,326.595154 375.274353,329.059143 376.991089,331.379730 
	C378.127991,332.916504 379.862762,334.011017 382.012848,335.905151 
	C385.255249,331.152222 390.007599,327.033264 389.000000,320.000000 
	C389.648529,320.621521 390.900543,321.292175 390.854553,321.857147 
	C390.224792,329.594299 395.672241,333.624481 400.298462,338.359344 
	C401.801880,339.898071 401.988098,342.723816 402.922699,345.374725 
	C407.750885,349.972900 412.762329,348.890961 417.111328,343.678955 
	C422.355835,349.440826 428.248474,349.598389 430.577911,344.965363 
	C435.637268,345.338196 440.508301,345.611328 445.355682,346.113190 
	C446.608704,346.242889 447.744873,347.286316 449.010498,347.560699 
	C450.792572,347.947083 452.776978,348.467560 454.408417,348.000366 
	C455.148438,347.788422 455.248383,345.341522 455.677246,343.766785 
	C460.595947,342.348633 468.677673,345.715271 471.099945,350.272095 
	C471.506836,351.037445 472.373352,351.982025 473.122742,352.074890 
	C479.243866,352.833099 480.215424,356.974213 480.084717,362.060272 
	C480.062714,362.915771 480.790436,363.790558 481.300110,364.947906 
	C484.324860,363.395111 487.383728,361.576385 488.961670,366.645569 
	C481.312408,367.000000 473.624847,367.000000 465.468018,366.605103 
	C464.160400,362.177948 463.434052,358.116394 462.394928,354.136505 
	C462.170013,353.275116 460.860229,352.155518 459.982697,352.092377 
	C453.476196,351.624481 446.950562,351.158020 440.435699,351.217468 
	C438.196533,351.237885 436.561432,352.939301 437.864807,355.841522 
	C438.488464,357.230225 438.490601,358.898102 438.774231,360.439514 
	C438.246216,360.578308 437.718170,360.717102 437.190155,360.855896 
	C436.528015,359.299835 435.341492,357.756897 435.302246,356.185272 
	C435.185547,351.510864 432.402618,350.840027 428.657898,350.978455 
	C424.840637,351.119537 421.013153,351.208252 417.197205,351.090637 
	C413.995789,350.991913 410.774750,350.744171 407.618134,350.224182 
	C405.037018,349.798950 402.344879,347.915100 400.044342,348.378326 
	C395.712189,349.250641 392.978882,347.541138 390.416870,344.699188 
	C389.489929,343.670929 388.949249,342.154480 387.853119,341.454712 
	C386.527374,340.608368 384.476135,339.581177 383.303253,340.048584 
	C379.020325,341.755341 378.951965,345.043823 382.713867,351.197418 
	C382.490997,351.583893 382.330872,352.284637 381.994263,352.383331 
	C373.869690,354.765228 373.142853,360.139069 376.000000,367.000000 
	C372.307098,367.000000 368.614166,367.000000 364.517639,366.648956 
	C367.349457,363.950928 371.255829,362.025665 371.594360,357.431519 
	C371.718872,355.741882 370.838654,352.538544 370.147827,352.462341 
	C365.684937,351.969849 366.132263,348.993103 365.887604,345.925934 
	C365.775940,344.525604 364.719330,343.020874 363.713135,341.904297 
	C360.195038,338.000336 356.284637,334.352783 356.332916,328.525238 
	C356.349396,326.534210 356.580170,324.544983 356.713013,322.554932 
	C356.311920,322.440155 355.910858,322.325378 355.509766,322.210602 
	C353.189331,328.229889 350.868896,334.249146 348.535950,340.300781 
	C343.109985,338.321686 340.595398,335.443146 339.807526,330.584534 
	C339.546967,328.977539 337.226227,327.126862 335.453186,326.496399 
	C333.460663,325.787903 331.022186,326.333466 328.806763,326.333466 
	C326.073242,336.319122 326.834839,341.424255 330.612518,343.468750 
	C330.853912,345.334747 330.649567,347.599884 331.272888,347.856781 
	C333.186279,348.645355 335.409210,348.742340 337.527283,348.951721 
	C338.702148,349.067902 340.411469,348.373901 340.973114,348.941833 
	C341.686371,349.663055 341.945160,351.467346 341.562927,352.492523 
	C340.962036,354.104095 339.984589,356.132202 338.599030,356.791870 
	C334.102783,358.932617 333.115479,362.645233 333.000000,367.000000 
	C330.629425,367.000000 328.258881,367.000000 325.482483,366.641327 
	C326.966370,362.046783 323.827881,360.425476 321.098511,358.540314 
	C317.997559,356.398468 313.612244,355.564606 313.428986,350.423462 
	C313.397278,349.533752 311.251740,348.719360 309.861389,347.709534 
	C306.437012,358.914062 306.606598,359.332001 316.773651,362.373047 
	C319.265472,363.118378 320.422089,364.410919 320.000000,367.000000 
	C314.977905,367.000000 309.955811,367.000000 304.466858,366.571686 
	C305.844818,354.816986 295.686401,358.260712 290.592163,355.272217 
	C290.110199,355.642944 289.500275,355.966431 289.084717,356.455200 
	C286.240082,359.800720 284.142792,359.646881 282.078339,355.524841 
	C281.456024,354.282349 279.345673,353.344330 277.789703,353.109283 
	C275.188049,352.716248 272.475433,353.136810 269.825043,352.969055 
	C265.517548,352.696381 261.662018,352.943573 261.626709,359.346313 
	C259.636261,356.616089 258.318146,354.808044 257.000000,352.750000 
	C257.000000,352.500000 257.000000,352.000000 257.000000,352.000000 
	C264.656250,351.347290 272.308197,350.632965 279.972687,350.098450 
	C281.361847,350.001556 283.757355,350.253479 284.062927,351.005157 
	C285.925293,355.586426 288.264771,353.338226 291.127747,352.223602 
	C295.704834,350.441681 300.518951,349.235718 305.283783,347.979584 
	C308.810028,347.049957 309.845551,344.374939 307.732300,341.239227 
	C305.531738,337.974060 303.411743,334.654572 301.519836,331.761505 
	C305.744659,331.518982 308.870270,331.552307 311.927765,331.112549 
	C316.170532,330.502350 318.869263,332.927734 318.410248,337.262787 
	C318.325867,338.059937 318.267578,338.896057 318.410706,339.674957 
	C319.101868,343.435760 319.866028,347.183136 320.727478,351.561279 
	C324.949554,352.616089 326.061371,352.007843 325.954803,346.965881 
	C325.805481,339.899811 325.453003,332.832855 324.955383,325.782623 
	C324.808655,323.703461 324.186920,321.521698 323.238312,319.665192 
	C321.560242,316.381165 321.684296,313.678406 324.901398,312.586334 
	C328.267426,312.111084 331.621429,311.482178 335.003967,311.217102 
	C337.095795,311.053162 339.231018,311.442596 341.346741,311.583557 
	C341.097900,313.403351 340.786987,315.217560 340.623688,317.045013 
	C340.526428,318.133545 340.515198,319.270538 340.717834,320.337769 
	C341.422943,324.051056 342.117645,327.775208 343.078796,331.426086 
	C343.404327,332.662628 344.509399,333.693970 345.258240,334.819092 
	C346.164673,333.859924 347.717072,332.984863 347.854980,331.925659 
	C348.249908,328.892303 347.861542,325.761444 348.193237,322.713776 
	C348.406799,320.751831 348.902008,318.532288 350.048920,317.016968 
	C352.904266,313.244385 352.246490,311.140015 349.226898,307.271393 
	C346.708130,304.044464 345.358643,299.707184 344.212524,295.657501 
	C342.836029,290.793793 337.746704,287.678833 333.123840,289.562622 
	C325.834808,292.532837 323.237244,291.123627 321.909363,283.588715 
	C321.651886,282.127625 321.173431,280.677948 320.598572,279.306122 
	C319.402832,276.452606 320.143890,274.144165 322.968597,273.237091 
	C326.345306,272.152679 326.173126,270.019989 325.670258,267.354553 
	C325.211884,264.924896 324.989471,262.450714 324.521729,258.933746 
	C318.673431,260.194397 312.834106,261.453064 307.013214,262.707794 
	C305.969055,258.949158 305.279388,256.466644 304.479553,253.587570 
	C305.743988,253.587570 307.062134,253.587570 308.669861,253.587570 
	C308.727448,252.648010 309.091522,251.367584 308.770050,251.162659 
	C307.206940,250.166306 305.460266,249.457870 302.862061,248.205887 
	C303.826843,247.294434 304.884338,245.436188 306.264618,245.153412 
	C310.309570,244.324722 309.948395,241.648468 309.801880,238.717285 
	C309.647736,235.633667 309.894501,232.525940 309.659271,229.452225 
	C309.546997,227.985428 308.913300,226.465256 308.172058,225.165237 
	C307.377533,223.771759 305.875732,222.748169 305.217224,221.317139 
	C303.623840,217.854507 302.065979,214.998535 298.099121,219.220718 
	C296.478882,211.638702 299.225128,207.011810 307.033386,203.510773 
	C309.894348,202.228012 312.715759,200.825546 315.662598,199.780655 
	C316.930573,199.331055 318.848236,199.129303 319.767700,199.791351 
	C320.480896,200.304871 320.642822,202.619354 320.107056,203.636887 
	C318.536133,206.620285 316.899414,209.767334 314.539551,212.089020 
	C311.260040,215.315399 311.194153,216.784134 315.625122,220.050369 
	C314.210266,224.622375 312.629944,228.577301 311.357330,232.628906 
	C311.109070,233.419266 311.871735,235.313370 312.479553,235.467056 
	C320.087372,237.391083 316.054443,240.500504 313.885529,244.155197 
	C312.849365,245.901154 313.130798,249.099823 314.033966,251.086670 
	C314.622040,252.380417 317.379761,252.746033 319.212402,253.394882 
	C320.375000,253.806488 321.612030,254.063004 322.837402,254.225159 
	C323.880676,254.363251 324.955017,254.267059 326.015594,254.274506 
	C325.945953,253.269409 325.990631,252.240479 325.786835,251.263367 
	C324.914886,247.083038 323.800568,242.941788 323.206360,238.725479 
	C323.098938,237.963364 325.017029,236.915787 326.000000,236.000000 
	C326.355011,239.444122 326.532959,242.918381 327.112793,246.324234 
	C327.746063,250.044083 330.733734,250.599136 333.629120,249.823303 
	C340.123108,248.083191 346.507538,245.934280 353.428406,243.815567 
	C354.068481,244.399582 354.216736,245.119827 354.364990,245.840088 
M347.404602,267.208099 
	C344.098022,262.663971 340.791412,258.119843 337.268951,253.279037 
	C336.282623,253.453857 334.654907,253.683121 333.055328,254.038910 
	C330.258301,254.661011 327.271057,261.893768 329.389679,262.739380 
	C334.336670,264.713837 333.797394,268.596527 334.008270,272.185394 
	C334.384735,278.591919 339.867676,281.269623 342.997742,285.679413 
	C346.234100,290.238922 350.024384,290.354645 354.710968,289.038605 
	C357.477814,288.261658 357.899811,286.950867 357.236145,284.297913 
	C356.623138,281.847595 356.433594,279.156769 356.720764,276.647797 
	C357.138275,272.999939 357.599487,269.939636 352.400299,269.803467 
	C350.925110,269.764862 349.485016,268.383392 347.404602,267.208099 
M360.627960,310.778748 
	C360.121185,311.784698 359.226288,312.775726 359.186890,313.799652 
	C359.099670,316.066162 358.853577,318.654602 359.819458,320.516754 
	C360.449493,321.731445 364.185608,322.872192 364.639038,322.362762 
	C366.205292,320.602936 367.639984,318.155029 367.804382,315.873962 
	C367.979828,313.439362 366.911072,310.787231 365.898438,308.440216 
	C365.232544,306.896729 363.704346,305.725281 362.562317,304.387238 
	C361.790497,306.331299 361.018677,308.275360 360.627960,310.778748 
M307.870178,218.800308 
	C309.528473,215.224823 311.186768,211.649338 312.845062,208.073853 
	C311.133575,207.332596 309.006653,205.538437 307.778778,206.022888 
	C300.429413,208.922668 300.328064,213.069534 307.870178,218.800308 
M350.041626,303.256165 
	C351.903900,304.379486 353.682190,306.058624 355.668823,306.358765 
	C356.489594,306.482788 357.757233,303.648773 358.821655,302.160095 
	C356.878845,300.841766 355.026215,299.306030 352.901978,298.425018 
	C352.558990,298.282745 351.008026,301.052887 350.041626,303.256165 
M360.045044,325.921448 
	C359.698730,327.167969 358.902252,328.496185 359.110229,329.642090 
	C359.432434,331.416962 360.238434,333.218170 361.312347,334.654510 
	C361.552185,334.975311 364.814941,333.922760 364.865479,333.343597 
	C365.075623,330.935181 364.826996,328.401093 364.187683,326.066162 
	C364.033295,325.502350 361.742157,325.523621 360.045044,325.921448 
M329.962372,276.256592 
	C329.437103,275.232086 328.911865,274.207581 328.386597,273.183075 
	C327.116913,274.099701 324.962769,274.874725 324.787964,275.966644 
	C324.535309,277.544525 325.717285,279.352081 326.287170,281.061615 
	C326.798279,280.979401 327.309357,280.897186 327.820465,280.814972 
	C328.499512,279.544800 329.178528,278.274628 329.962372,276.256592 
M368.177551,328.497253 
	C368.863007,328.866272 369.548492,329.235321 370.233948,329.604370 
	C370.383820,329.040039 370.533661,328.475739 370.683502,327.911377 
	C369.900574,327.881805 369.117615,327.852234 368.177551,328.497253 
M467.856110,352.509491 
	C467.430237,352.207550 467.004364,351.905609 466.578491,351.603668 
	C466.465057,352.050598 466.351593,352.497498 466.238159,352.944427 
	C466.736542,352.997833 467.234924,353.051239 467.856110,352.509491 
M328.522095,286.313019 
	C327.977081,285.975311 327.432037,285.637573 326.887024,285.299866 
	C326.752686,285.573303 326.618347,285.846741 326.483978,286.120148 
	C327.017731,286.324677 327.551483,286.529205 328.522095,286.313019 
M330.705444,269.564301 
	C330.989227,269.293518 331.273010,269.022736 331.556793,268.751953 
	C331.444519,268.634491 331.240845,268.408752 331.233215,268.415192 
	C330.933899,268.667938 330.652435,268.941803 330.705444,269.564301 
z"/>
<path fill="#FFFFFE" opacity="1.000000" stroke="none" 
	d="
M1.000000,348.469360 
	C4.954197,347.740173 8.905827,347.399963 12.864285,347.273499 
	C13.937629,347.239197 15.487523,347.498413 16.044916,348.220337 
	C21.098597,354.765808 28.601250,352.189819 35.034882,353.359406 
	C37.721043,353.847717 40.637436,353.183990 43.433201,352.891571 
	C44.386204,352.791901 45.719257,352.502533 46.152359,351.831238 
	C52.265427,342.356140 60.584171,348.252563 68.118973,348.503448 
	C73.664452,348.688080 79.229958,348.696808 84.765213,348.394073 
	C85.835251,348.335510 86.635406,346.103577 87.865631,345.532410 
	C89.499245,344.773987 92.753426,343.900146 93.035164,344.388611 
	C96.165077,349.815369 101.291153,348.862732 106.972046,349.001160 
	C112.398773,350.194519 116.681740,350.303070 120.857361,347.304779 
	C122.414429,346.186798 124.924492,346.395996 127.363556,345.957153 
	C128.791748,344.096375 130.445648,342.381439 130.785599,340.436859 
	C131.321274,337.372406 130.973679,334.153503 131.372864,331.000244 
	C133.163818,331.333649 134.581909,331.666809 136.000000,332.433929 
	C135.623749,339.184357 135.814865,345.603882 134.692734,351.784973 
	C133.786285,356.777985 133.772217,360.865112 137.792847,364.395081 
	C138.450592,364.972534 138.610168,366.117401 139.000000,367.000000 
	C108.979103,367.000000 78.958214,367.000000 48.468758,366.577454 
	C47.408691,362.584808 51.125103,358.543243 47.020092,355.327393 
	C41.205505,357.228241 40.699486,362.515747 39.000000,367.000000 
	C26.431698,367.000000 13.863395,367.000000 1.000000,367.000000 
	C1.000000,360.982788 1.000000,354.960754 1.000000,348.469360 
z"/>
<path fill="#FFFFFE" opacity="1.000000" stroke="none" 
	d="
M257.000000,353.000000 
	C258.318146,354.808044 259.636261,356.616089 261.626709,359.346313 
	C261.662018,352.943573 265.517548,352.696381 269.825043,352.969055 
	C272.475433,353.136810 275.188049,352.716248 277.789703,353.109283 
	C279.345673,353.344330 281.456024,354.282349 282.078339,355.524841 
	C284.142792,359.646881 286.240082,359.800720 289.084717,356.455200 
	C289.500275,355.966431 290.110199,355.642944 290.592163,355.272217 
	C295.686401,358.260712 305.844818,354.816986 304.000000,366.571686 
	C252.979111,367.000000 201.958206,367.000000 150.435318,366.653625 
	C148.318878,362.259003 151.487534,360.207001 153.685822,357.983398 
	C155.847198,355.797180 158.483185,354.080139 161.537231,351.661102 
	C158.768372,349.552795 157.584290,348.462982 156.232071,347.654266 
	C150.535568,344.247437 149.970764,342.147156 153.243088,336.112091 
	C154.668259,333.483673 154.066910,332.163635 150.870209,331.911499 
	C149.538162,331.806458 148.287613,330.668365 147.416656,330.000000 
	C149.222214,330.000000 150.611115,330.000000 152.383270,330.000427 
	C155.905930,331.805756 159.045319,333.610596 162.458374,335.572754 
	C160.639099,337.990967 159.463120,339.554138 158.466019,340.879486 
	C161.610931,341.567017 164.512192,342.987915 167.133942,342.585876 
	C170.858215,342.014832 173.669052,341.274719 174.409241,346.265259 
	C174.547394,347.196625 176.270020,347.976532 177.362259,348.666779 
	C180.366577,350.565430 183.424438,352.379364 185.604675,353.705750 
	C188.074203,352.705444 190.074265,351.541534 192.219452,351.124969 
	C194.405289,350.700470 196.733902,351.011169 199.333344,351.000000 
	C200.111115,351.000000 200.555557,351.000000 201.005524,351.379456 
	C201.352570,355.509430 203.882874,356.169037 207.400223,356.000000 
	C208.866959,356.000000 209.933487,356.000000 211.357803,355.957947 
	C213.810394,354.943939 215.905197,353.971954 218.415771,353.000000 
	C221.214951,352.215210 223.744888,351.716614 225.951645,350.586792 
	C230.739044,348.135773 235.965866,347.745239 240.029480,350.605347 
	C242.961716,352.669128 245.539886,352.959076 248.594269,352.993317 
	C251.395859,353.024719 254.198059,353.000000 257.000000,353.000000 
z"/>
<path fill="#FEFEFE" opacity="1.000000" stroke="none" 
	d="
M199.000000,351.000000 
	C196.733902,351.011169 194.405289,350.700470 192.219452,351.124969 
	C190.074265,351.541534 188.074203,352.705444 185.604675,353.705750 
	C183.424438,352.379364 180.366577,350.565430 177.362259,348.666779 
	C176.270020,347.976532 174.547394,347.196625 174.409241,346.265259 
	C173.669052,341.274719 170.858215,342.014832 167.133942,342.585876 
	C164.512192,342.987915 161.610931,341.567017 158.466019,340.879486 
	C159.463120,339.554138 160.639099,337.990967 162.458374,335.572754 
	C159.045319,333.610596 155.905930,331.805756 152.371002,329.608704 
	C149.611160,328.012360 147.246841,326.808258 144.882538,325.604126 
	C144.517853,326.253265 144.153183,326.902374 143.788498,327.551483 
	C144.858994,328.367676 145.929504,329.183838 147.000000,330.000000 
	C148.287613,330.668365 149.538162,331.806458 150.870209,331.911499 
	C154.066910,332.163635 154.668259,333.483673 153.243088,336.112091 
	C149.970764,342.147156 150.535568,344.247437 156.232071,347.654266 
	C157.584290,348.462982 158.768372,349.552795 161.537231,351.661102 
	C158.483185,354.080139 155.847198,355.797180 153.685822,357.983398 
	C151.487534,360.207001 148.318878,362.259003 149.966660,366.653625 
	C146.638718,367.000000 143.277420,367.000000 139.458069,367.000000 
	C138.610168,366.117401 138.450592,364.972534 137.792847,364.395081 
	C133.772217,360.865112 133.786285,356.777985 134.692734,351.784973 
	C135.814865,345.603882 135.623749,339.184357 136.299850,332.282562 
	C137.399796,330.131500 138.199890,328.565735 139.118668,326.713257 
	C138.824905,325.617706 138.412445,324.808838 137.735229,323.811035 
	C136.313629,322.081360 135.156815,320.540680 134.000061,318.588806 
	C134.666733,313.118408 135.333374,308.059204 136.250000,303.000000 
	C136.500000,303.000000 137.000000,303.000000 137.291626,303.287170 
	C137.719513,304.216492 137.961533,304.856323 137.975464,305.501129 
	C138.101486,311.331665 137.176620,317.614960 144.591385,320.166016 
	C144.868301,320.261322 145.129486,320.597504 145.263565,320.884247 
	C148.171936,327.103973 154.462906,325.793274 159.725708,328.343048 
	C159.859299,325.677948 159.788925,324.020416 160.066513,322.423340 
	C160.333023,320.889954 161.464676,319.378082 161.346451,317.927673 
	C160.611481,308.912079 160.557953,308.974854 168.953049,304.840240 
	C171.810638,303.432861 173.713409,301.516632 172.529434,297.688934 
	C172.017105,296.032654 172.957596,293.927002 173.143417,292.667511 
	C177.626617,293.462921 181.050812,294.213348 184.514954,294.637390 
	C187.037354,294.946167 189.617676,294.765900 192.155273,294.992767 
	C192.384995,295.013306 192.681625,297.071625 192.626846,297.087646 
	C190.181732,297.802307 187.719559,298.803345 185.220032,298.919037 
	C179.081650,299.203033 177.646591,300.479492 179.448273,306.504730 
	C181.088074,311.988708 177.254654,318.083435 181.633270,323.145782 
	C181.874466,323.424652 181.193756,324.374420 181.185623,325.014984 
	C181.102142,331.585510 180.842712,338.168854 181.194931,344.718353 
	C181.274277,346.193756 183.417221,348.613678 184.814697,348.769989 
	C189.493210,349.293121 194.264343,348.987976 199.000000,349.333344 
	C199.000000,350.111115 199.000000,350.555573 199.000000,351.000000 
M145.958206,353.216675 
	C145.587845,352.289124 145.217499,351.361603 144.847122,350.434082 
	C144.275467,351.095856 143.703827,351.757660 143.132187,352.419464 
	C144.028809,352.914948 144.925415,353.410461 145.958206,353.216675 
M173.170258,334.141541 
	C173.406158,333.358368 173.642075,332.575195 173.877975,331.792023 
	C173.390152,331.715210 172.902328,331.638397 172.414520,331.561584 
	C172.564774,332.245422 172.715042,332.929291 173.170258,334.141541 
M166.094574,320.728943 
	C166.039871,320.231415 165.985168,319.733887 165.930481,319.236359 
	C165.485413,319.350861 165.040359,319.465332 164.595291,319.579834 
	C164.896454,320.004730 165.197601,320.429657 166.094574,320.728943 
M172.435669,318.705444 
	C172.706451,318.989258 172.977234,319.273041 173.248016,319.556854 
	C173.365479,319.444580 173.591248,319.240906 173.584793,319.233246 
	C173.332092,318.933899 173.058197,318.652435 172.435669,318.705444 
z"/>
<path fill="#FFFFFE" opacity="1.000000" stroke="none" 
	d="
M376.468658,367.000000 
	C373.142853,360.139069 373.869690,354.765228 381.994263,352.383331 
	C382.330872,352.284637 382.490997,351.583893 382.713867,351.197418 
	C378.951965,345.043823 379.020325,341.755341 383.303253,340.048584 
	C384.476135,339.581177 386.527374,340.608368 387.853119,341.454712 
	C388.949249,342.154480 389.489929,343.670929 390.416870,344.699188 
	C392.978882,347.541138 395.712189,349.250641 400.044342,348.378326 
	C402.344879,347.915100 405.037018,349.798950 407.618134,350.224182 
	C410.774750,350.744171 413.995789,350.991913 417.197205,351.090637 
	C421.013153,351.208252 424.840637,351.119537 428.657898,350.978455 
	C432.402618,350.840027 435.185547,351.510864 435.302246,356.185272 
	C435.341492,357.756897 436.528015,359.299835 437.190155,360.855896 
	C437.718170,360.717102 438.246216,360.578308 438.774231,360.439514 
	C438.490601,358.898102 438.488464,357.230225 437.864807,355.841522 
	C436.561432,352.939301 438.196533,351.237885 440.435699,351.217468 
	C446.950562,351.158020 453.476196,351.624481 459.982697,352.092377 
	C460.860229,352.155518 462.170013,353.275116 462.394928,354.136505 
	C463.434052,358.116394 464.160400,362.177948 464.999390,366.605103 
	C435.645782,367.000000 406.291534,367.000000 376.468658,367.000000 
z"/>
<path fill="#FFFFFE" opacity="1.000000" stroke="none" 
	d="
M333.468658,367.000000 
	C333.115479,362.645233 334.102783,358.932617 338.599030,356.791870 
	C339.984589,356.132202 340.962036,354.104095 341.562927,352.492523 
	C341.945160,351.467346 341.686371,349.663055 340.973114,348.941833 
	C340.411469,348.373901 338.702148,349.067902 337.527283,348.951721 
	C335.409210,348.742340 333.186279,348.645355 331.272888,347.856781 
	C330.649567,347.599884 330.853912,345.334747 330.612518,343.468750 
	C326.834839,341.424255 326.073242,336.319122 328.806763,326.333466 
	C331.022186,326.333466 333.460663,325.787903 335.453186,326.496399 
	C337.226227,327.126862 339.546967,328.977539 339.807526,330.584534 
	C340.595398,335.443146 343.109985,338.321686 348.535950,340.300781 
	C350.868896,334.249146 353.189331,328.229889 355.509766,322.210602 
	C355.910858,322.325378 356.311920,322.440155 356.713013,322.554932 
	C356.580170,324.544983 356.349396,326.534210 356.332916,328.525238 
	C356.284637,334.352783 360.195038,338.000336 363.713135,341.904297 
	C364.719330,343.020874 365.775940,344.525604 365.887604,345.925934 
	C366.132263,348.993103 365.684937,351.969849 370.147827,352.462341 
	C370.838654,352.538544 371.718872,355.741882 371.594360,357.431519 
	C371.255829,362.025665 367.349457,363.950928 364.057007,366.648956 
	C353.979095,367.000000 343.958221,367.000000 333.468658,367.000000 
z"/>
<path fill="#FFFFFE" opacity="1.000000" stroke="none" 
	d="
M520.476685,367.000000 
	C520.000000,363.900116 520.000000,360.800201 520.000000,357.700317 
	C519.601318,358.061035 519.202637,358.421722 518.803894,358.782440 
	C516.584595,357.482025 513.468262,356.701141 512.346741,354.764862 
	C510.453613,351.496307 512.855042,348.144012 517.225891,347.480316 
	C522.147583,346.733002 527.143250,346.472321 532.553345,346.000000 
	C533.000000,352.905273 533.000000,359.810577 533.000000,367.000000 
	C528.988831,367.000000 524.971069,367.000000 520.476685,367.000000 
z"/>
<path fill="#FFFFFE" opacity="1.000000" stroke="none" 
	d="
M320.416656,367.000000 
	C320.422089,364.410919 319.265472,363.118378 316.773651,362.373047 
	C306.606598,359.332001 306.437012,358.914062 309.861389,347.709534 
	C311.251740,348.719360 313.397278,349.533752 313.428986,350.423462 
	C313.612244,355.564606 317.997559,356.398468 321.098511,358.540314 
	C323.827881,360.425476 326.966370,362.046783 325.038330,366.641327 
	C323.611115,367.000000 322.222198,367.000000 320.416656,367.000000 
z"/>
<path fill="#FDFEFB" opacity="1.000000" stroke="none" 
	d="
M39.449982,367.000000 
	C40.699486,362.515747 41.205505,357.228241 47.020092,355.327393 
	C51.125103,358.543243 47.408691,362.584808 48.000099,366.577454 
	C45.299988,367.000000 42.599972,367.000000 39.449982,367.000000 
z"/>
<path fill="#010101" opacity="1.000000" stroke="none" 
	d="
M354.703430,245.874313 
	C354.216736,245.119827 354.068481,244.399582 353.633698,243.439529 
	C352.115845,241.184998 350.884552,239.170258 349.325012,236.647964 
	C347.418579,233.731689 345.840424,231.322952 344.262268,228.914185 
	C343.786682,228.005798 343.311066,227.097412 342.499512,225.737427 
	C341.367615,224.142288 340.571686,222.998764 339.775757,221.855225 
	C327.152893,202.072678 314.529999,182.290131 301.535645,161.975174 
	C298.820099,157.862579 296.476044,154.282379 294.132019,150.702194 
	C293.363251,147.967484 291.685455,146.570786 287.914612,147.040680 
	C283.059021,147.102478 279.029297,147.162888 274.999542,147.223297 
	C260.867767,147.223282 246.736008,147.223282 232.215454,147.223282 
	C232.215454,111.959160 232.215454,77.226036 232.215454,42.146973 
	C233.520020,42.078617 234.962021,41.938332 236.404114,41.937412 
	C252.568710,41.927143 268.733612,41.988697 284.897644,41.894302 
	C287.599030,41.878532 289.301270,42.426094 290.907837,44.970768 
	C313.980377,81.515594 337.246338,117.938202 360.389038,154.438858 
	C376.146118,179.290939 391.782501,204.219543 407.480286,229.109238 
	C407.912048,229.793854 408.429230,230.424637 409.571350,231.993820 
	C409.571350,168.194366 409.571350,105.399231 409.571350,42.268196 
	C429.179962,42.268196 448.263550,42.268196 467.749207,42.268196 
	C467.749207,139.502243 467.749207,237.010040 467.749207,334.956757 
	C449.894318,334.956757 432.106384,335.024719 414.321838,334.810211 
	C413.080780,334.795258 411.563385,332.881470 410.681885,331.521729 
	C392.513489,303.495667 374.420135,275.420990 356.299774,247.363754 
	C355.955292,246.830353 355.464417,246.391510 354.703430,245.874313 
z"/>
<path fill="#010101" opacity="1.000000" stroke="none" 
	d="
M109.938683,335.114685 
	C92.813858,335.114685 75.689041,335.114685 57.931049,335.114685 
	C57.931049,293.070343 57.931049,251.496780 57.932259,209.004028 
	C57.878597,203.392807 57.823727,198.700806 57.852936,193.754303 
	C57.880928,193.330154 57.824829,193.160507 57.852928,192.529556 
	C57.877850,176.715469 57.818581,161.362671 57.852600,145.638062 
	C57.883644,144.507355 57.821400,143.748459 57.759155,142.989563 
	C57.820290,111.522942 57.881630,80.056320 57.942059,48.589695 
	C57.945877,46.601486 57.942558,44.613266 57.942558,42.272121 
	C77.269936,42.272121 96.462540,42.272121 116.018120,42.272121 
	C116.018120,81.992599 116.018120,121.713257 116.018120,161.996460 
	C132.938416,161.996460 149.504364,161.996460 166.942596,162.004639 
	C169.212234,161.950424 170.609589,161.888046 172.006958,161.825653 
	C197.697372,161.887085 223.387772,161.948502 249.999969,162.010223 
	C260.281189,161.945633 269.640625,161.880722 279.000061,161.815826 
	C282.026703,161.874588 285.053314,161.933350 288.581604,162.452209 
	C289.162476,164.945984 289.241699,166.979675 289.320923,169.013351 
	C289.276764,179.697296 289.232574,190.381241 289.180176,201.895981 
	C289.239685,203.489777 289.307404,204.252762 289.375122,205.015762 
	C289.375153,208.128845 289.375153,211.241943 289.375153,215.135330 
	C282.896088,215.135330 276.728119,215.135330 269.755676,215.128571 
	C262.725159,215.186218 256.499054,215.250626 250.272964,215.315033 
	C215.342651,215.255066 180.412323,215.191635 145.482010,215.137421 
	C135.870132,215.122513 126.258217,215.135147 116.161705,215.135147 
	C116.161705,253.649384 116.161705,291.857971 116.157043,330.860413 
	C116.226379,332.107819 116.300369,332.561401 116.374367,333.014954 
	C116.122009,333.628693 115.869652,334.242432 114.956146,334.908020 
	C112.842888,335.011505 111.390785,335.063110 109.938683,335.114685 
z"/>
<path fill="#020202" opacity="1.000000" stroke="none" 
	d="
M251.990768,229.163116 
	C264.098785,229.163116 276.206787,229.163116 289.274567,229.163116 
	C289.274567,262.491364 289.274567,295.277496 289.263489,328.936829 
	C289.153351,331.531281 289.054291,333.252563 288.955261,334.973846 
	C288.955261,334.973846 288.990723,335.006104 288.531067,334.973877 
	C285.045502,335.010986 282.019623,335.080353 278.993744,335.149689 
	C263.448303,335.149689 247.902893,335.149689 231.843277,335.149689 
	C231.843277,322.355164 231.843277,310.137421 231.840164,297.014648 
	C231.772156,293.072754 231.707260,290.035889 231.642365,286.999023 
	C231.713791,269.126343 231.809494,251.253677 231.827286,233.380936 
	C231.829620,231.027725 231.765518,228.949951 235.961609,229.515930 
	C241.900238,229.396652 246.945511,229.279877 251.990768,229.163116 
z"/>
<path fill="#FFFFFE" opacity="1.000000" stroke="none" 
	d="
M134.000000,319.000000 
	C135.156815,320.540680 136.313629,322.081360 137.735229,324.186035 
	C138.000000,325.500000 138.000000,326.250000 137.636841,327.041260 
	C135.182449,328.388367 133.091217,329.694183 130.638336,331.065277 
	C129.560303,333.012878 128.579315,334.842133 128.188705,336.789795 
	C127.581482,339.817535 127.375854,342.925842 127.000000,346.000000 
	C124.924492,346.395996 122.414429,346.186798 120.857361,347.304779 
	C116.681740,350.303070 112.398773,350.194519 107.416740,349.001160 
	C109.016495,345.258667 112.054489,343.636780 116.344421,344.228302 
	C123.370773,345.197144 126.045464,343.048065 125.964348,336.149750 
	C125.806145,322.695587 125.415161,309.244293 125.195435,295.790558 
	C125.177277,294.678558 125.466759,293.390808 126.055954,292.467041 
	C130.226288,285.928833 128.162506,279.135193 127.050003,272.371307 
	C126.396820,268.400055 125.033440,264.373596 125.357994,260.486206 
	C125.520088,258.544769 128.703629,256.804504 130.614609,255.077347 
	C131.989349,253.834839 134.284607,253.035492 134.808640,251.556396 
	C135.684418,249.084595 134.405136,247.363724 131.381882,246.733734 
	C130.019638,246.449860 128.238388,244.462433 128.021591,243.038681 
	C127.080528,236.858704 126.436394,230.608551 126.229340,224.365814 
	C126.193909,223.297684 128.968048,221.069321 130.171494,221.245056 
	C132.832382,221.633575 136.997040,222.664230 137.564560,224.405457 
	C139.296356,229.718689 139.569641,235.500229 140.528748,241.079208 
	C140.692368,242.031067 141.438385,242.882812 141.915359,243.780807 
	C142.672409,243.111618 143.789261,242.582642 144.115463,241.745575 
	C144.922760,239.673935 145.368240,237.461304 146.201736,234.419983 
	C152.257278,240.926865 154.421051,236.041855 157.150513,231.857224 
	C160.061859,227.393723 166.601852,227.719559 169.538849,232.625916 
	C167.777786,233.000000 166.388885,233.000000 164.770889,232.731064 
	C159.832626,232.292404 158.032089,234.091995 156.965820,240.343384 
	C156.287750,242.124481 155.643875,243.562195 154.606354,245.007050 
	C151.820282,245.677490 149.281845,246.042740 147.090332,247.116257 
	C145.781357,247.757431 144.277466,249.430161 144.134155,250.774857 
	C143.503311,256.694946 143.174408,262.660950 143.048523,268.616943 
	C142.938202,273.836426 141.973129,278.324005 137.153534,281.475800 
	C133.285294,284.005432 131.919861,287.339355 134.352219,292.143616 
	C135.990631,295.379730 136.168655,299.355255 137.000000,303.000000 
	C137.000000,303.000000 136.500000,303.000000 136.107758,302.677795 
	C135.405655,301.776215 135.240341,300.980774 134.758545,300.658386 
	C133.367859,299.727844 131.849625,298.987976 130.381470,298.173248 
	C129.921082,299.610901 129.136429,301.032349 129.063538,302.489410 
	C128.874969,306.258575 129.170883,310.053406 128.952377,313.819366 
	C128.733643,317.589172 130.045731,319.483032 134.000000,319.000000 
z"/>
<path fill="#FFFFFE" opacity="1.000000" stroke="none" 
	d="
M231.294922,287.009216 
	C231.707260,290.035889 231.772156,293.072754 231.741043,296.555603 
	C223.502533,295.852509 220.971542,302.392273 217.437057,307.478729 
	C217.080856,307.991333 217.185791,309.196777 217.552490,309.783264 
	C222.812119,318.194885 223.427567,327.490204 223.063568,337.042603 
	C222.990250,338.966461 223.144760,341.390778 224.235397,342.747070 
	C225.714706,344.586731 228.029999,346.208191 230.291641,346.851990 
	C233.243576,347.692322 236.498337,347.689453 239.613693,347.623047 
	C240.805481,347.597626 242.083054,346.534729 243.129776,345.703217 
	C246.427734,343.083435 249.805862,342.025604 254.435684,344.512573 
	C252.832581,346.294830 251.679581,347.576660 250.300674,349.109650 
	C252.453995,349.907196 254.507111,350.667603 256.780090,351.713989 
	C257.000000,352.000000 257.000000,352.500000 257.000000,352.750000 
	C254.198059,353.000000 251.395859,353.024719 248.594269,352.993317 
	C245.539886,352.959076 242.961716,352.669128 240.029480,350.605347 
	C235.965866,347.745239 230.739044,348.135773 225.951645,350.586792 
	C223.744888,351.716614 221.214951,352.215210 218.415009,352.624207 
	C217.332321,351.165588 216.666153,350.082794 216.052399,348.589752 
	C217.069687,342.541199 218.455429,336.931000 218.834274,331.253601 
	C219.045959,328.081390 218.584015,323.022125 216.665787,321.943848 
	C212.981522,319.872894 213.220413,317.411499 212.911987,314.283966 
	C212.603256,311.153168 211.731659,308.047638 210.824081,305.015656 
	C210.104233,302.610809 208.957291,300.333771 208.000000,297.625000 
	C208.000000,296.500000 208.000000,295.750000 208.258850,294.892700 
	C209.011795,294.523590 209.505905,294.261810 210.000183,294.416870 
	C210.747040,296.182495 211.493729,297.531219 212.240417,298.879944 
	C212.708008,297.384644 213.378067,295.915375 213.574585,294.385254 
	C213.714066,293.299377 213.214386,292.131348 213.274139,290.753784 
	C213.365509,288.671722 213.182755,286.835876 213.000000,284.562500 
	C213.000000,282.083344 213.000000,280.041656 213.153168,277.649170 
	C213.537567,275.532257 213.768784,273.766113 213.995102,271.627014 
	C213.401031,267.186493 210.428421,266.290039 206.843994,265.642456 
	C206.792007,262.523285 206.895996,259.761658 207.333328,257.000000 
	C208.111099,257.000000 208.555557,257.000000 209.337921,256.998108 
	C210.450577,256.664124 211.225281,256.332062 212.390915,255.945801 
	C217.144440,252.774567 214.687332,248.276260 214.612961,244.500107 
	C214.588409,243.254715 211.155334,241.959747 209.162918,240.911453 
	C207.863220,240.227600 206.365631,239.612152 204.931381,239.549957 
	C200.789719,239.370346 196.635239,239.486450 192.309769,239.486450 
	C192.635025,242.084625 192.817520,243.542313 192.967560,245.345245 
	C192.623413,246.793655 192.311707,247.896835 191.600006,249.000000 
	C190.133347,249.000000 189.066666,249.000000 187.946045,248.656021 
	C186.928055,247.874695 185.964020,247.437347 185.000000,246.558685 
	C184.913696,244.192429 184.827377,242.267487 184.753311,240.615570 
	C180.404846,239.647873 176.702423,238.823929 173.000000,237.625061 
	C173.000000,236.500290 173.000000,235.750458 173.000000,235.000610 
	C180.395493,237.806870 187.621872,239.218933 195.627426,236.328720 
	C199.602631,234.893555 204.505478,236.014221 208.988739,236.003128 
	C216.251892,235.985153 216.418900,235.850784 217.606033,227.414795 
	C220.238647,229.612396 222.515793,231.224625 224.302490,233.266098 
	C224.630966,233.641418 223.276794,236.426834 222.166031,236.935623 
	C219.592422,238.114502 218.692459,239.300842 219.465958,242.264725 
	C220.160507,244.926147 219.574127,247.900696 220.086441,250.637222 
	C220.535019,253.033188 222.053955,255.228561 222.503952,257.624512 
	C223.053696,260.551544 224.160477,264.278931 222.911148,266.433960 
	C220.863159,269.966675 219.962830,272.978058 220.902267,276.954041 
	C221.690857,280.291504 221.786819,283.814178 221.974152,287.266510 
	C222.189957,291.243561 224.025848,291.273132 226.814819,289.531189 
	C228.181976,288.677277 229.569275,287.855652 231.294922,287.009216 
z"/>
<path fill="#FEFEFE" opacity="1.000000" stroke="none" 
	d="
M185.000000,247.000000 
	C185.964020,247.437347 186.928055,247.874695 187.900436,249.042114 
	C188.098999,251.469910 187.675201,254.029526 188.603653,254.690948 
	C190.718323,256.197388 195.561142,253.023285 196.853317,249.244324 
	C195.117233,249.156921 193.558609,249.078461 192.000000,249.000000 
	C192.311707,247.896835 192.623413,246.793655 193.374329,245.345291 
	C197.105362,244.509293 198.686554,246.128891 200.064590,249.045776 
	C200.865768,250.741638 203.157349,251.858658 204.968811,252.906891 
	C206.133423,253.580795 207.644318,253.656296 209.000000,254.375000 
	C209.000000,255.500000 209.000000,256.250000 209.000000,257.000000 
	C208.555557,257.000000 208.111099,257.000000 207.257568,256.630432 
	C201.917160,253.803787 198.874130,255.911896 197.915390,261.738098 
	C197.158569,266.337250 198.668991,271.183075 193.816040,275.320343 
	C189.256760,279.207275 188.985550,280.219086 185.898575,274.633209 
	C183.825607,270.882202 182.427185,266.758453 180.931229,263.276855 
	C182.655075,261.573029 184.350586,259.897247 186.046097,258.221436 
	C185.735229,257.858521 185.424377,257.495605 185.113510,257.132660 
	C179.940186,258.441711 174.229385,258.800873 169.749619,261.335663 
	C165.544586,263.714996 162.640823,268.394043 159.164474,272.061188 
	C158.640747,271.821655 158.117035,271.582123 157.593307,271.342590 
	C158.108276,266.481812 157.592392,261.176239 159.441299,256.891022 
	C161.136734,252.961472 160.833969,250.858353 157.920105,248.366714 
	C156.803543,247.411911 155.965164,246.131790 155.000000,244.999924 
	C155.643875,243.562195 156.287750,242.124481 157.314362,240.307617 
	C160.131378,237.618988 162.565689,235.309494 165.000000,233.000000 
	C166.388885,233.000000 167.777786,233.000000 169.583344,233.000000 
	C170.764236,233.663223 171.528488,234.326462 172.646362,234.995148 
	C173.000000,235.750458 173.000000,236.500290 172.597443,237.626862 
	C167.568344,238.705170 168.172653,243.359131 166.406479,246.147568 
	C166.014069,246.767120 168.848938,250.570984 169.305161,250.408127 
	C173.082001,249.059799 173.127686,252.467010 174.719635,253.987076 
	C176.044662,255.252228 178.055496,256.880524 179.481552,256.645172 
	C180.826263,256.423248 182.006851,254.089676 182.888016,252.481400 
	C183.820496,250.779465 184.314499,248.837265 185.000000,247.000000 
M164.538177,256.408630 
	C167.571579,256.459290 167.571579,256.459290 167.115921,252.741165 
	C165.974548,253.980148 165.167999,254.855652 164.538177,256.408630 
z"/>
<path fill="#FCFEFB" opacity="1.000000" stroke="none" 
	d="
M57.768852,194.008804 
	C57.823727,198.700806 57.878597,203.392807 57.842289,208.543213 
	C54.424942,209.330521 52.736534,208.039337 52.970028,204.485062 
	C53.132927,202.005371 52.997097,199.506256 53.000473,197.015823 
	C53.004707,193.888931 52.931057,191.197769 48.283188,192.557724 
	C47.204453,192.873383 45.411213,190.747101 43.726681,189.593781 
	C49.736000,185.369293 51.496868,176.898529 47.329163,172.323669 
	C44.779583,169.525024 41.626129,170.557297 39.028606,173.925232 
	C37.357605,170.003510 35.511471,170.145187 33.759235,174.653763 
	C33.327080,174.361496 32.894924,174.069229 32.462769,173.776978 
	C31.999464,170.382080 30.801527,166.859634 31.360163,163.642166 
	C31.673801,161.835785 34.692703,160.032410 36.866634,159.169189 
	C38.490910,158.524200 40.777020,159.768158 42.649601,159.456680 
	C44.171665,159.203476 46.467030,158.089050 46.696709,156.994904 
	C46.973251,155.677536 45.502796,153.934250 44.647758,152.456894 
	C43.936852,151.228561 43.022106,150.118225 42.197655,148.955612 
	C43.592525,147.975754 44.866093,146.513962 46.409805,146.125397 
	C48.925159,145.492279 51.616920,145.560013 54.883564,145.282776 
	C56.275028,145.492340 57.017170,145.751114 57.759312,146.009888 
	C57.818581,161.362671 57.877850,176.715469 57.620800,192.544098 
	C57.067410,193.180832 56.830338,193.341705 56.593258,193.502594 
	C56.985119,193.671326 57.376984,193.840073 57.768852,194.008804 
z"/>
<path fill="#FEFEFE" opacity="1.000000" stroke="none" 
	d="
M478.000000,300.000000 
	C477.669128,296.882324 476.747528,293.675354 477.200806,290.676208 
	C477.541992,288.418640 479.646179,286.427582 480.965576,284.317902 
	C483.041962,285.952576 486.674072,287.382599 486.920715,289.257904 
	C487.897522,296.684509 492.532410,299.952820 498.614960,303.012024 
	C505.785828,306.618591 506.928131,315.079742 501.425507,319.927856 
	C500.092163,321.102631 497.930817,321.342133 496.145203,321.997925 
	C494.067993,322.760834 491.922241,323.371063 489.916992,324.289337 
	C484.386475,326.821869 483.633209,330.173431 487.042114,335.523346 
	C488.895966,338.432831 488.720154,342.635559 489.533051,346.613373 
	C484.322968,345.882660 479.873779,340.406250 480.649902,336.685913 
	C481.266968,333.727905 481.002899,331.996429 477.598358,330.552521 
	C476.057526,329.899078 474.653687,325.245972 475.461456,323.404968 
	C478.127808,317.328217 480.196594,311.458862 478.369568,304.455017 
	C479.568115,304.580292 480.456390,305.025513 481.257812,305.593353 
	C486.095764,309.021301 485.873322,314.935455 481.060791,318.200470 
	C477.460388,320.643158 478.880737,324.279724 479.355408,327.838623 
	C482.104126,326.479309 484.100250,324.510406 486.451569,323.159790 
	C489.342346,321.499207 492.514862,320.320435 495.593811,318.999237 
	C497.555847,318.157379 500.304443,317.969025 501.360809,316.514709 
	C502.506531,314.937378 503.132690,311.368195 502.154083,310.194183 
	C500.033295,307.649872 496.851440,305.899048 493.908447,304.152374 
	C489.501312,301.536713 485.538086,298.906464 485.842743,292.821991 
	C485.902832,291.622070 484.019562,290.324860 483.032501,289.072510 
	C481.701569,290.314362 480.021393,291.360352 479.173187,292.872925 
	C478.679871,293.752747 479.838165,295.424103 479.669464,296.659576 
	C479.510010,297.827240 478.587097,298.890686 478.000000,300.000000 
z"/>
<path fill="#FFFFFE" opacity="1.000000" stroke="none" 
	d="
M478.000000,300.399994 
	C478.587097,298.890686 479.510010,297.827240 479.669464,296.659576 
	C479.838165,295.424103 478.679871,293.752747 479.173187,292.872925 
	C480.021393,291.360352 481.701569,290.314362 483.032501,289.072510 
	C484.019562,290.324860 485.902832,291.622070 485.842743,292.821991 
	C485.538086,298.906464 489.501312,301.536713 493.908447,304.152374 
	C496.851440,305.899048 500.033295,307.649872 502.154083,310.194183 
	C503.132690,311.368195 502.506531,314.937378 501.360809,316.514709 
	C500.304443,317.969025 497.555847,318.157379 495.593811,318.999237 
	C492.514862,320.320435 489.342346,321.499207 486.451569,323.159790 
	C484.100250,324.510406 482.104126,326.479309 479.355408,327.838623 
	C478.880737,324.279724 477.460388,320.643158 481.060791,318.200470 
	C485.873322,314.935455 486.095764,309.021301 481.257812,305.593353 
	C480.456390,305.025513 479.568115,304.580292 478.359985,304.039185 
	C478.000000,302.933319 478.000000,301.866669 478.000000,300.399994 
z"/>
<path fill="#FFFFFE" opacity="1.000000" stroke="none" 
	d="
M326.000000,235.562500 
	C325.017029,236.915787 323.098938,237.963364 323.206360,238.725479 
	C323.800568,242.941788 324.914886,247.083038 325.786835,251.263367 
	C325.990631,252.240479 325.945953,253.269409 326.015594,254.274506 
	C324.955017,254.267059 323.880676,254.363251 322.837402,254.225159 
	C321.612030,254.063004 320.375000,253.806488 319.212402,253.394882 
	C317.379761,252.746033 314.622040,252.380417 314.033966,251.086670 
	C313.130798,249.099823 312.849365,245.901154 313.885529,244.155197 
	C316.054443,240.500504 320.087372,237.391083 312.479553,235.467056 
	C311.871735,235.313370 311.109070,233.419266 311.357330,232.628906 
	C312.629944,228.577301 314.210266,224.622375 315.841522,220.316833 
	C316.444458,220.000000 316.888885,220.000000 317.724213,220.347168 
	C321.410278,222.829788 325.274200,224.425308 326.000000,229.000000 
	C326.000000,231.041672 326.000000,233.083328 326.000000,235.562500 
z"/>
<path fill="#FFFFFE" opacity="1.000000" stroke="none" 
	d="
M389.000000,319.666687 
	C390.007599,327.033264 385.255249,331.152222 382.012848,335.905151 
	C379.862762,334.011017 378.127991,332.916504 376.991089,331.379730 
	C375.274353,329.059143 373.422729,326.595154 372.615570,323.896820 
	C371.058319,318.690796 370.039978,313.303162 369.159485,307.931610 
	C368.973419,306.796722 370.339020,305.407501 370.989685,304.135468 
	C371.659088,305.232361 372.768372,306.270477 372.924072,307.436005 
	C373.730499,313.472046 379.936249,317.870026 388.580688,318.000000 
	C389.000000,318.444458 389.000000,318.888885 389.000000,319.666687 
z"/>
<path fill="#FEFEFB" opacity="1.000000" stroke="none" 
	d="
M278.991699,161.441177 
	C269.640625,161.880722 260.281189,161.945633 250.460846,161.919647 
	C249.798813,158.181473 252.194519,158.110443 254.920715,157.927933 
	C257.653473,157.744980 260.347015,156.976028 262.867737,155.727692 
	C265.194916,156.244507 267.522095,156.761322 268.869843,157.060638 
	C271.264374,153.493011 273.124908,150.720993 274.992493,147.586136 
	C279.029297,147.162888 283.059021,147.102478 287.544739,147.130768 
	C288.024139,151.293396 286.994690,153.984940 281.969727,154.164139 
	C277.307739,154.330399 278.026428,157.894135 278.991699,161.441177 
z"/>
<path fill="#F5F6F2" opacity="1.000000" stroke="none" 
	d="
M250.206772,215.750641 
	C256.499054,215.250626 262.725159,215.186218 269.340881,215.220184 
	C268.875153,216.802231 268.033905,219.552689 267.162201,219.562363 
	C261.824738,219.621567 256.475250,219.113266 251.148514,218.599686 
	C250.738785,218.560196 250.473175,217.025818 250.206772,215.750641 
z"/>
<path fill="#F5F6F2" opacity="1.000000" stroke="none" 
	d="
M251.986664,228.757095 
	C246.945511,229.279877 241.900238,229.396652 236.407486,229.371429 
	C235.735275,226.606110 237.366821,225.113464 239.446777,226.128845 
	C243.507843,228.111374 249.110596,220.736298 251.986664,228.757095 
z"/>
<path fill="#F5F6F2" opacity="1.000000" stroke="none" 
	d="
M293.987427,151.043304 
	C296.476044,154.282379 298.820099,157.862579 301.253998,161.743744 
	C299.721313,163.165939 298.098724,164.287140 295.600494,166.013428 
	C295.754211,161.614700 297.118256,157.520462 291.163391,157.711563 
	C292.201813,155.259521 293.022339,153.321976 293.987427,151.043304 
z"/>
<path fill="#F5F6F1" opacity="1.000000" stroke="none" 
	d="
M343.888794,228.967300 
	C345.840424,231.322952 347.418579,233.731689 349.037079,236.478363 
	C347.039154,238.996902 344.714111,238.966003 343.967438,236.158401 
	C343.390045,233.987518 337.768982,231.636551 343.888794,228.967300 
z"/>
<path fill="#F5F6F2" opacity="1.000000" stroke="none" 
	d="
M278.997375,335.559631 
	C282.019623,335.080353 285.045502,335.010986 288.524719,334.950958 
	C288.058228,336.302917 286.925934,338.882782 286.256531,338.767822 
	C283.745789,338.336548 279.548157,341.420074 278.997375,335.559631 
z"/>
<path fill="#F5F6F2" opacity="1.000000" stroke="none" 
	d="
M289.655487,168.957458 
	C289.241699,166.979675 289.162476,164.945984 289.034790,162.477844 
	C289.425385,161.094894 289.864441,160.146408 290.364624,159.065781 
	C294.617859,163.026688 294.549255,163.935791 289.655487,168.957458 
z"/>
<path fill="#FEFEFE" opacity="1.000000" stroke="none" 
	d="
M326.276550,228.751053 
	C325.274200,224.425308 321.410278,222.829788 318.057556,220.347168 
	C325.518280,220.504013 327.267883,222.243195 326.276550,228.751053 
z"/>
<path fill="#F5F6F2" opacity="1.000000" stroke="none" 
	d="
M109.951370,335.548889 
	C111.390785,335.063110 112.842888,335.011505 114.650627,335.054291 
	C114.091766,336.400726 113.177269,337.652740 112.262764,338.904755 
	C111.496529,337.930847 110.730293,336.956970 109.951370,335.548889 
z"/>
<path fill="#F5F6F2" opacity="1.000000" stroke="none" 
	d="
M289.348572,334.978760 
	C289.054291,333.252563 289.153351,331.531281 289.366943,329.393250 
	C292.930878,330.784332 293.014557,332.714874 289.348572,334.978760 
z"/>
<path fill="#F5F6F1" opacity="1.000000" stroke="none" 
	d="
M339.434387,221.956909 
	C340.571686,222.998764 341.367615,224.142288 342.227020,225.584549 
	C340.755676,225.509598 339.220886,225.135925 337.248413,224.655685 
	C338.051910,223.524429 338.572479,222.791504 339.434387,221.956909 
z"/>
<path fill="#F5F6F2" opacity="1.000000" stroke="none" 
	d="
M171.929321,161.481415 
	C170.609589,161.888046 169.212234,161.950424 167.403931,161.919556 
	C168.257843,159.095657 169.946487,159.353043 171.929321,161.481415 
z"/>
<path fill="#F5F6F2" opacity="1.000000" stroke="none" 
	d="
M289.681519,204.967224 
	C289.307404,204.252762 289.239685,203.489777 289.275452,202.354706 
	C290.136322,202.319336 290.893707,202.656021 291.651093,202.992706 
	C291.096680,203.634689 290.542267,204.276688 289.681519,204.967224 
z"/>
<path fill="#F5F6F2" opacity="1.000000" stroke="none" 
	d="
M57.852600,145.638062 
	C57.017170,145.751114 56.275028,145.492340 55.256462,145.116821 
	C55.681683,144.331238 56.383327,143.662399 57.422066,142.991547 
	C57.821400,143.748459 57.883644,144.507355 57.852600,145.638062 
z"/>
<path fill="#F5F6F2" opacity="1.000000" stroke="none" 
	d="
M59.609253,338.534851 
	C60.058903,338.650909 60.331665,338.936096 60.604431,339.221283 
	C60.486210,339.334137 60.271141,339.551544 60.263748,339.544708 
	C59.974834,339.277222 59.704842,338.989258 59.609253,338.534851 
z"/>
<path fill="#F5F6F2" opacity="1.000000" stroke="none" 
	d="
M116.634476,332.967224 
	C116.300369,332.561401 116.226379,332.107819 116.249504,331.319855 
	C116.529282,331.630127 116.711937,332.274811 116.634476,332.967224 
z"/>
<path fill="#FFFFFE" opacity="1.000000" stroke="none" 
	d="
M347.716736,267.412933 
	C349.485016,268.383392 350.925110,269.764862 352.400299,269.803467 
	C357.599487,269.939636 357.138275,272.999939 356.720764,276.647797 
	C356.433594,279.156769 356.623138,281.847595 357.236145,284.297913 
	C357.899811,286.950867 357.477814,288.261658 354.710968,289.038605 
	C350.024384,290.354645 346.234100,290.238922 342.997742,285.679413 
	C339.867676,281.269623 334.384735,278.591919 334.008270,272.185394 
	C333.797394,268.596527 334.336670,264.713837 329.389679,262.739380 
	C327.271057,261.893768 330.258301,254.661011 333.055328,254.038910 
	C334.654907,253.683121 336.282623,253.453857 337.268951,253.279037 
	C340.791412,258.119843 344.098022,262.663971 347.716736,267.412933 
z"/>
<path fill="#FDFEFB" opacity="1.000000" stroke="none" 
	d="
M360.437408,310.499084 
	C361.018677,308.275360 361.790497,306.331299 362.562317,304.387238 
	C363.704346,305.725281 365.232544,306.896729 365.898438,308.440216 
	C366.911072,310.787231 367.979828,313.439362 367.804382,315.873962 
	C367.639984,318.155029 366.205292,320.602936 364.639038,322.362762 
	C364.185608,322.872192 360.449493,321.731445 359.819458,320.516754 
	C358.853577,318.654602 359.099670,316.066162 359.186890,313.799652 
	C359.226288,312.775726 360.121185,311.784698 360.437408,310.499084 
z"/>
<path fill="#FFFFFE" opacity="1.000000" stroke="none" 
	d="
M307.517517,218.671417 
	C300.328064,213.069534 300.429413,208.922668 307.778778,206.022888 
	C309.006653,205.538437 311.133575,207.332596 312.845062,208.073853 
	C311.186768,211.649338 309.528473,215.224823 307.517517,218.671417 
z"/>
<path fill="#FFFFFE" opacity="1.000000" stroke="none" 
	d="
M350.028534,302.866455 
	C351.008026,301.052887 352.558990,298.282745 352.901978,298.425018 
	C355.026215,299.306030 356.878845,300.841766 358.821655,302.160095 
	C357.757233,303.648773 356.489594,306.482788 355.668823,306.358765 
	C353.682190,306.058624 351.903900,304.379486 350.028534,302.866455 
z"/>
<path fill="#FDFEFB" opacity="1.000000" stroke="none" 
	d="
M360.239349,325.598633 
	C361.742157,325.523621 364.033295,325.502350 364.187683,326.066162 
	C364.826996,328.401093 365.075623,330.935181 364.865479,333.343597 
	C364.814941,333.922760 361.552185,334.975311 361.312347,334.654510 
	C360.238434,333.218170 359.432434,331.416962 359.110229,329.642090 
	C358.902252,328.496185 359.698730,327.167969 360.239349,325.598633 
z"/>
<path fill="#FFFFFE" opacity="1.000000" stroke="none" 
	d="
M329.909973,276.630524 
	C329.178528,278.274628 328.499512,279.544800 327.820465,280.814972 
	C327.309357,280.897186 326.798279,280.979401 326.287170,281.061615 
	C325.717285,279.352081 324.535309,277.544525 324.787964,275.966644 
	C324.962769,274.874725 327.116913,274.099701 328.386597,273.183075 
	C328.911865,274.207581 329.437103,275.232086 329.909973,276.630524 
z"/>
<path fill="#FFFFFE" opacity="1.000000" stroke="none" 
	d="
M368.256104,328.159973 
	C369.117615,327.852234 369.900574,327.881805 370.683502,327.911377 
	C370.533661,328.475739 370.383820,329.040039 370.233948,329.604370 
	C369.548492,329.235321 368.863007,328.866272 368.256104,328.159973 
z"/>
<path fill="#FDFEFB" opacity="1.000000" stroke="none" 
	d="
M467.794708,352.807068 
	C467.234924,353.051239 466.736542,352.997833 466.238159,352.944427 
	C466.351593,352.497498 466.465057,352.050598 466.578491,351.603668 
	C467.004364,351.905609 467.430237,352.207550 467.794708,352.807068 
z"/>
<path fill="#FFFFFE" opacity="1.000000" stroke="none" 
	d="
M328.303650,286.523376 
	C327.551483,286.529205 327.017731,286.324677 326.483978,286.120178 
	C326.618347,285.846741 326.752686,285.573303 326.887024,285.299866 
	C327.432037,285.637573 327.977081,285.975311 328.303650,286.523376 
z"/>
<path fill="#FFFFFE" opacity="1.000000" stroke="none" 
	d="
M330.537048,269.388611 
	C330.652435,268.941803 330.933899,268.667938 331.233215,268.415192 
	C331.240845,268.408752 331.444519,268.634491 331.556793,268.751953 
	C331.273010,269.022736 330.989227,269.293518 330.537048,269.388611 
z"/>
<path fill="#FFFFFE" opacity="1.000000" stroke="none" 
	d="
M127.363556,345.957153 
	C127.375854,342.925842 127.581482,339.817535 128.188705,336.789795 
	C128.579315,334.842133 129.560303,333.012878 130.638336,331.065277 
	C130.973679,334.153503 131.321274,337.372406 130.785599,340.436859 
	C130.445648,342.381439 128.791748,344.096375 127.363556,345.957153 
z"/>
<path fill="#FFFFFE" opacity="1.000000" stroke="none" 
	d="
M131.372864,331.000244 
	C133.091217,329.694183 135.182449,328.388367 137.886841,327.041260 
	C138.500000,327.000000 139.000000,327.000000 139.000000,327.000000 
	C138.199890,328.565735 137.399796,330.131500 136.299866,331.848633 
	C134.581909,331.666809 133.163818,331.333649 131.372864,331.000244 
z"/>
<path fill="#FEFEFE" opacity="1.000000" stroke="none" 
	d="
M199.333344,351.000000 
	C199.000000,350.555573 199.000000,350.111115 199.253754,349.056030 
	C202.338348,347.630249 205.169174,346.815125 208.000000,346.250000 
	C208.000000,346.500000 208.000000,347.000000 208.000519,347.381653 
	C209.000671,349.175537 210.000336,350.587769 211.000000,352.399994 
	C211.000000,353.866669 211.000000,354.933319 211.000000,356.000000 
	C209.933487,356.000000 208.866959,356.000000 207.361389,355.633972 
	C206.190323,352.121735 204.358414,350.501740 201.000000,351.000000 
	C200.555557,351.000000 200.111115,351.000000 199.333344,351.000000 
z"/>
<path fill="#FFFFFE" opacity="1.000000" stroke="none" 
	d="
M147.416656,330.000000 
	C145.929504,329.183838 144.858994,328.367676 143.788498,327.551483 
	C144.153183,326.902374 144.517853,326.253265 144.882538,325.604126 
	C147.246841,326.808258 149.611160,328.012360 151.987732,329.608246 
	C150.611115,330.000000 149.222214,330.000000 147.416656,330.000000 
z"/>
<path fill="#FEFEFE" opacity="1.000000" stroke="none" 
	d="
M211.357803,355.957947 
	C211.000000,354.933319 211.000000,353.866669 211.356171,352.396179 
	C213.141556,350.994934 214.570786,349.997467 216.000000,349.000000 
	C216.666153,350.082794 217.332321,351.165588 217.999237,352.624207 
	C215.905197,353.971954 213.810394,354.943939 211.357803,355.957947 
z"/>
<path fill="#FEFEFE" opacity="1.000000" stroke="none" 
	d="
M201.005524,351.379456 
	C204.358414,350.501740 206.190323,352.121735 206.961166,355.633972 
	C203.882874,356.169037 201.352570,355.509430 201.005524,351.379456 
z"/>
<path fill="#FDFEFB" opacity="1.000000" stroke="none" 
	d="
M208.000000,346.000000 
	C205.169174,346.815125 202.338348,347.630249 199.253754,348.722656 
	C194.264343,348.987976 189.493210,349.293121 184.814697,348.769989 
	C183.417221,348.613678 181.274277,346.193756 181.194931,344.718353 
	C180.842712,338.168854 181.102142,331.585510 181.185623,325.014984 
	C181.193756,324.374420 181.874466,323.424652 181.633270,323.145782 
	C177.254654,318.083435 181.088074,311.988708 179.448273,306.504730 
	C177.646591,300.479492 179.081650,299.203033 185.220032,298.919037 
	C187.719559,298.803345 190.181732,297.802307 192.626846,297.087646 
	C192.681625,297.071625 192.384995,295.013306 192.155273,294.992767 
	C189.617676,294.765900 187.037354,294.946167 184.514954,294.637390 
	C181.050812,294.213348 177.626617,293.462921 173.143417,292.667511 
	C172.957596,293.927002 172.017105,296.032654 172.529434,297.688934 
	C173.713409,301.516632 171.810638,303.432861 168.953049,304.840240 
	C160.557953,308.974854 160.611481,308.912079 161.346451,317.927673 
	C161.464676,319.378082 160.333023,320.889954 160.066513,322.423340 
	C159.788925,324.020416 159.859299,325.677948 159.725708,328.343048 
	C154.462906,325.793274 148.171936,327.103973 145.263565,320.884247 
	C145.129486,320.597504 144.868301,320.261322 144.591385,320.166016 
	C137.176620,317.614960 138.101486,311.331665 137.975464,305.501129 
	C137.961533,304.856323 137.719513,304.216492 137.291626,303.287170 
	C136.168655,299.355255 135.990631,295.379730 134.352219,292.143616 
	C131.919861,287.339355 133.285294,284.005432 137.153534,281.475800 
	C141.973129,278.324005 142.938202,273.836426 143.048523,268.616943 
	C143.174408,262.660950 143.503311,256.694946 144.134155,250.774857 
	C144.277466,249.430161 145.781357,247.757431 147.090332,247.116257 
	C149.281845,246.042740 151.820282,245.677490 154.606354,245.007050 
	C155.965164,246.131790 156.803543,247.411911 157.920105,248.366714 
	C160.833969,250.858353 161.136734,252.961472 159.441299,256.891022 
	C157.592392,261.176239 158.108276,266.481812 157.593307,271.342590 
	C158.117035,271.582123 158.640747,271.821655 159.164474,272.061188 
	C162.640823,268.394043 165.544586,263.714996 169.749619,261.335663 
	C174.229385,258.800873 179.940186,258.441711 185.113510,257.132660 
	C185.424377,257.495605 185.735229,257.858521 186.046097,258.221436 
	C184.350586,259.897247 182.655075,261.573029 180.931229,263.276855 
	C182.427185,266.758453 183.825607,270.882202 185.898575,274.633209 
	C188.985550,280.219086 189.256760,279.207275 193.816040,275.320343 
	C198.668991,271.183075 197.158569,266.337250 197.915390,261.738098 
	C198.874130,255.911896 201.917160,253.803787 206.924240,256.630432 
	C206.895996,259.761658 206.792007,262.523285 206.843994,266.017456 
	C207.000000,267.500000 207.000000,268.250000 206.654968,269.053314 
	C204.541016,271.493134 201.645996,273.693695 201.215347,276.301208 
	C199.947876,283.975281 199.741470,291.819824 198.900269,299.573853 
	C198.765182,300.819000 197.740570,302.231995 196.718155,303.065979 
	C193.899490,305.365051 195.031433,307.308899 197.371246,308.472656 
	C200.413132,309.985626 203.775543,310.854126 207.285217,312.270508 
	C207.713623,314.694031 207.856812,316.847015 208.000000,319.444153 
	C208.000214,322.258881 208.000412,324.629425 208.000381,327.416656 
	C208.000107,329.222198 208.000061,330.611115 207.662979,332.048828 
	C206.550644,333.398438 205.775330,334.699219 204.620667,336.006042 
	C201.967148,336.302094 199.692993,336.592072 197.418854,336.882050 
	C197.276337,337.292542 197.133835,337.703033 196.991318,338.113525 
	C200.327545,339.409027 203.663773,340.704529 207.271271,342.232574 
	C207.695023,343.643433 207.847519,344.821716 208.000000,346.000000 
z"/>
<path fill="#FFFFFE" opacity="1.000000" stroke="none" 
	d="
M134.000061,318.588806 
	C130.045731,319.483032 128.733643,317.589172 128.952377,313.819366 
	C129.170883,310.053406 128.874969,306.258575 129.063538,302.489410 
	C129.136429,301.032349 129.921082,299.610901 130.381470,298.173248 
	C131.849625,298.987976 133.367859,299.727844 134.758545,300.658386 
	C135.240341,300.980774 135.405655,301.776215 135.857758,302.677795 
	C135.333374,308.059204 134.666733,313.118408 134.000061,318.588806 
z"/>
<path fill="#FFFFFE" opacity="1.000000" stroke="none" 
	d="
M145.890121,353.561310 
	C144.925415,353.410461 144.028809,352.914948 143.132187,352.419464 
	C143.703827,351.757660 144.275467,351.095856 144.847137,350.434082 
	C145.217499,351.361603 145.587845,352.289124 145.890121,353.561310 
z"/>
<path fill="#FFFFFE" opacity="1.000000" stroke="none" 
	d="
M173.017776,333.877319 
	C172.715042,332.929291 172.564774,332.245422 172.414520,331.561584 
	C172.902328,331.638397 173.390152,331.715210 173.877975,331.792023 
	C173.642075,332.575195 173.406158,333.358368 173.017776,333.877319 
z"/>
<path fill="#FDFEFB" opacity="1.000000" stroke="none" 
	d="
M165.796661,320.791748 
	C165.197601,320.429657 164.896454,320.004730 164.595291,319.579834 
	C165.040359,319.465332 165.485413,319.350861 165.930481,319.236359 
	C165.985168,319.733887 166.039871,320.231415 165.796661,320.791748 
z"/>
<path fill="#FFFFFE" opacity="1.000000" stroke="none" 
	d="
M139.118683,326.713257 
	C139.000000,327.000000 138.500000,327.000000 138.250000,327.000000 
	C138.000000,326.250000 138.000000,325.500000 138.000000,324.375000 
	C138.412445,324.808838 138.824905,325.617706 139.118683,326.713257 
z"/>
<path fill="#FDFEFB" opacity="1.000000" stroke="none" 
	d="
M172.611374,318.537048 
	C173.058197,318.652435 173.332092,318.933899 173.584793,319.233246 
	C173.591248,319.240906 173.365479,319.444580 173.248016,319.556854 
	C172.977234,319.273041 172.706451,318.989258 172.611374,318.537048 
z"/>
<path fill="#F5F6F2" opacity="1.000000" stroke="none" 
	d="
M57.852936,193.754303 
	C57.376984,193.840073 56.985119,193.671326 56.593258,193.502594 
	C56.830338,193.341705 57.067410,193.180832 57.536606,193.005402 
	C57.824829,193.160507 57.880928,193.330154 57.852936,193.754303 
z"/>
<path fill="#FFFFFE" opacity="1.000000" stroke="none" 
	d="
M164.770889,232.731064 
	C162.565689,235.309494 160.131378,237.618988 157.348541,239.964249 
	C158.032089,234.091995 159.832626,232.292404 164.770889,232.731064 
z"/>
<path fill="#FFFFFE" opacity="1.000000" stroke="none" 
	d="
M208.000000,346.250000 
	C207.847519,344.821716 207.695023,343.643433 207.163971,341.973724 
	C206.523621,340.988190 206.261810,340.494110 206.271271,339.767426 
	C206.695023,338.356567 206.847504,337.178284 207.320251,335.957794 
	C208.093689,335.277069 208.546844,334.638550 208.978867,333.702454 
	C208.638474,332.936615 208.319229,332.468323 208.000000,332.000000 
	C208.000061,330.611115 208.000107,329.222198 208.353943,327.411407 
	C209.471817,326.326324 210.235901,325.663177 211.333633,324.949585 
	C211.444855,323.932770 211.222427,322.966400 210.992218,321.628784 
	C209.989624,320.505066 208.994812,319.752533 208.000000,319.000000 
	C207.856812,316.847015 207.713623,314.694031 207.149811,311.960999 
	C205.152802,309.920624 203.576401,308.460327 202.000000,306.600006 
	C202.000000,305.133331 202.000000,304.066681 202.000000,302.625000 
	C202.000000,301.500000 202.000000,300.750000 202.341537,299.995087 
	C203.564438,298.908813 204.445786,297.827484 205.379364,296.682068 
	C206.033478,297.011047 207.016739,297.505524 207.999985,298.000000 
	C208.957291,300.333771 210.104233,302.610809 210.824081,305.015656 
	C211.731659,308.047638 212.603256,311.153168 212.911987,314.283966 
	C213.220413,317.411499 212.981522,319.872894 216.665787,321.943848 
	C218.584015,323.022125 219.045959,328.081390 218.834274,331.253601 
	C218.455429,336.931000 217.069687,342.541199 216.052414,348.589752 
	C214.570786,349.997467 213.141556,350.994934 211.318390,351.638000 
	C209.949615,349.855774 208.974808,348.427887 208.000000,347.000000 
	C208.000000,347.000000 208.000000,346.500000 208.000000,346.250000 
z"/>
<path fill="#FFFFFE" opacity="1.000000" stroke="none" 
	d="
M185.000015,246.558685 
	C184.314499,248.837265 183.820496,250.779465 182.888016,252.481400 
	C182.006851,254.089676 180.826263,256.423248 179.481552,256.645172 
	C178.055496,256.880524 176.044662,255.252228 174.719635,253.987076 
	C173.127686,252.467010 173.082001,249.059799 169.305161,250.408127 
	C168.848938,250.570984 166.014069,246.767120 166.406479,246.147568 
	C168.172653,243.359131 167.568344,238.705170 172.597443,238.001785 
	C176.702423,238.823929 180.404846,239.647873 184.753311,240.615570 
	C184.827377,242.267487 184.913696,244.192429 185.000015,246.558685 
z"/>
<path fill="#FFFFFE" opacity="1.000000" stroke="none" 
	d="
M209.000000,254.000000 
	C207.644318,253.656296 206.133423,253.580795 204.968811,252.906891 
	C203.157349,251.858658 200.865768,250.741638 200.064590,249.045776 
	C198.686554,246.128891 197.105362,244.509293 193.406769,245.000046 
	C192.817520,243.542313 192.635025,242.084625 192.309769,239.486450 
	C196.635239,239.486450 200.789719,239.370346 204.931381,239.549957 
	C206.365631,239.612152 207.863220,240.227600 209.162918,240.911453 
	C211.155334,241.959747 214.588409,243.254715 214.612961,244.500107 
	C214.687332,248.276260 217.144440,252.774567 212.249222,255.657135 
	C210.811081,254.948441 209.905533,254.474213 209.000000,254.000000 
z"/>
<path fill="#FEFEFE" opacity="1.000000" stroke="none" 
	d="
M202.000000,300.000000 
	C202.000000,300.750000 202.000000,301.500000 201.653870,302.686523 
	C199.325195,304.810547 199.240723,306.159149 202.000000,307.000000 
	C203.576401,308.460327 205.152802,309.920624 206.864594,311.690491 
	C203.775543,310.854126 200.413132,309.985626 197.371246,308.472656 
	C195.031433,307.308899 193.899490,305.365051 196.718155,303.065979 
	C197.740570,302.231995 198.765182,300.819000 198.900269,299.573853 
	C199.741470,291.819824 199.947876,283.975281 201.215347,276.301208 
	C201.645996,273.693695 204.541016,271.493134 206.654968,269.386658 
	C207.000000,270.111115 207.000000,270.555542 207.039154,271.362671 
	C206.735153,273.359894 206.659393,275.116730 205.981964,276.598480 
	C205.112946,278.499329 203.919006,280.144470 207.000000,281.399994 
	C207.000000,282.866669 207.000000,283.933319 206.772797,285.172058 
	C207.030396,285.896088 207.515198,286.448029 208.343384,286.965820 
	C210.124496,286.287750 211.562241,285.643860 213.000000,285.000000 
	C213.182755,286.835876 213.365509,288.671722 212.934082,290.788574 
	C211.546600,292.046356 210.773300,293.023163 210.000000,294.000000 
	C209.505905,294.261810 209.011795,294.523590 208.221420,294.537567 
	C207.381210,292.899048 206.837280,291.508331 205.967331,289.284058 
	C203.492325,293.282135 199.453995,295.412964 202.000000,300.000000 
z"/>
<path fill="#FFFFFE" opacity="1.000000" stroke="none" 
	d="
M213.000000,284.562500 
	C211.562241,285.643860 210.124496,286.287750 208.322266,286.668274 
	C207.638504,285.936615 207.319244,285.468323 207.000000,285.000000 
	C207.000000,283.933319 207.000000,282.866669 207.005707,281.024231 
	C207.449860,275.350128 210.612137,277.706360 213.000000,278.000000 
	C213.000000,280.041656 213.000000,282.083344 213.000000,284.562500 
z"/>
<path fill="#FDFEFB" opacity="1.000000" stroke="none" 
	d="
M191.600006,249.000000 
	C193.558609,249.078461 195.117233,249.156921 196.853317,249.244324 
	C195.561142,253.023285 190.718323,256.197388 188.603653,254.690948 
	C187.675201,254.029526 188.098999,251.469910 187.954407,249.386093 
	C189.066666,249.000000 190.133347,249.000000 191.600006,249.000000 
z"/>
<path fill="#FEFEFE" opacity="1.000000" stroke="none" 
	d="
M213.153168,277.649170 
	C210.612137,277.706360 207.449860,275.350128 207.005707,280.624268 
	C203.919006,280.144470 205.112946,278.499329 205.981964,276.598480 
	C206.659393,275.116730 206.735153,273.359894 207.427979,271.408905 
	C209.851776,271.395020 211.925888,271.697510 214.000000,272.000000 
	C213.768784,273.766113 213.537567,275.532257 213.153168,277.649170 
z"/>
<path fill="#FEFEFE" opacity="1.000000" stroke="none" 
	d="
M202.341537,299.995087 
	C199.453995,295.412964 203.492325,293.282135 205.967331,289.284058 
	C206.837280,291.508331 207.381210,292.899048 207.962570,294.644867 
	C208.000000,295.750000 208.000000,296.500000 208.000000,297.625000 
	C207.016739,297.505524 206.033478,297.011047 205.379364,296.682068 
	C204.445786,297.827484 203.564438,298.908813 202.341537,299.995087 
z"/>
<path fill="#FFFFFE" opacity="1.000000" stroke="none" 
	d="
M213.995102,271.627014 
	C211.925888,271.697510 209.851776,271.395020 207.388824,271.046265 
	C207.000000,270.555542 207.000000,270.111115 207.000000,269.333313 
	C207.000000,268.250000 207.000000,267.500000 207.000000,266.375000 
	C210.428421,266.290039 213.401031,267.186493 213.995102,271.627014 
z"/>
<path fill="#FDFEFB" opacity="1.000000" stroke="none" 
	d="
M210.000183,294.416870 
	C210.773300,293.023163 211.546600,292.046356 212.659943,291.034760 
	C213.214386,292.131348 213.714066,293.299377 213.574585,294.385254 
	C213.378067,295.915375 212.708008,297.384644 212.240417,298.879944 
	C211.493729,297.531219 210.747040,296.182495 210.000183,294.416870 
z"/>
<path fill="#FEFEFE" opacity="1.000000" stroke="none" 
	d="
M209.000000,254.375000 
	C209.905533,254.474213 210.811081,254.948441 211.858307,255.711334 
	C211.225281,256.332062 210.450577,256.664124 209.337921,256.998108 
	C209.000000,256.250000 209.000000,255.500000 209.000000,254.375000 
z"/>
<path fill="#FFFFFE" opacity="1.000000" stroke="none" 
	d="
M164.449829,256.069885 
	C165.167999,254.855652 165.974548,253.980148 167.115921,252.741165 
	C167.571579,256.459290 167.571579,256.459290 164.449829,256.069885 
z"/>
<path fill="#FEFEFE" opacity="1.000000" stroke="none" 
	d="
M208.000519,347.381653 
	C208.974808,348.427887 209.949615,349.855774 210.962219,351.641846 
	C210.000336,350.587769 209.000671,349.175537 208.000519,347.381653 
z"/>
<path fill="#FEFEFE" opacity="1.000000" stroke="none" 
	d="
M206.000000,340.000000 
	C206.261810,340.494110 206.523621,340.988190 206.892700,341.741150 
	C203.663773,340.704529 200.327545,339.409027 196.991318,338.113525 
	C197.133835,337.703033 197.276337,337.292542 197.418854,336.882050 
	C199.692993,336.592072 201.967148,336.302094 204.620758,336.371887 
	C205.333466,337.821075 205.666733,338.910553 206.000000,340.000000 
z"/>
<path fill="#FEFEFE" opacity="1.000000" stroke="none" 
	d="
M208.000000,319.444153 
	C208.994812,319.752533 209.989624,320.505066 210.992218,322.003784 
	C211.000000,323.500000 211.000000,324.250000 211.000000,325.000000 
	C210.235901,325.663177 209.471817,326.326324 208.354172,326.994751 
	C208.000412,324.629425 208.000214,322.258881 208.000000,319.444153 
z"/>
<path fill="#FEFEFE" opacity="1.000000" stroke="none" 
	d="
M207.662964,332.048828 
	C208.319229,332.468323 208.638474,332.936615 208.658600,333.744659 
	C207.906311,334.722931 207.453156,335.361450 206.666656,336.000000 
	C205.888901,336.000000 205.444443,336.000000 205.000000,336.000000 
	C205.775330,334.699219 206.550644,333.398438 207.662964,332.048828 
z"/>
<path fill="#FEFEFE" opacity="1.000000" stroke="none" 
	d="
M202.000000,306.600006 
	C199.240723,306.159149 199.325195,304.810547 201.653870,303.061523 
	C202.000000,304.066681 202.000000,305.133331 202.000000,306.600006 
z"/>
<path fill="#FEFEFE" opacity="1.000000" stroke="none" 
	d="
M205.000092,336.365814 
	C205.444443,336.000000 205.888901,336.000000 206.666672,336.000000 
	C206.847504,337.178284 206.695023,338.356567 206.271271,339.767426 
	C205.666733,338.910553 205.333466,337.821075 205.000092,336.365814 
z"/>
<path fill="#FEFEFE" opacity="1.000000" stroke="none" 
	d="
M211.333633,324.949585 
	C211.000000,324.250000 211.000000,323.500000 211.000000,322.375000 
	C211.222427,322.966400 211.444855,323.932770 211.333633,324.949585 
z"/>
<path fill="#FEFEFE" opacity="1.000000" stroke="none" 
	d="
M207.320251,335.957794 
	C207.453156,335.361450 207.906311,334.722931 208.679749,334.042206 
	C208.546844,334.638550 208.093689,335.277069 207.320251,335.957794 
z"/>
<path fill="#FEFEFE" opacity="1.000000" stroke="none" 
	d="
M206.772797,285.172058 
	C207.319244,285.468323 207.638504,285.936615 207.978882,286.702454 
	C207.515198,286.448029 207.030396,285.896088 206.772797,285.172058 
z"/>
</svg>